<?xml version="1.0" encoding="UTF-8" standalone="no"?>
<!DOCTYPE svg PUBLIC "-//W3C//DTD SVG 1.1//EN"
 "http://www.w3.org/Graphics/SVG/1.1/DTD/svg11.dtd">
<!-- Generated by graphviz version 2.26.3 (20100126.1600)
 -->
<!-- Title: G Pages: 1 -->
<svg width="662pt" height="264pt"
 viewBox="0.00 0.00 662.00 264.00" xmlns="http://www.w3.org/2000/svg" xmlns:xlink="http://www.w3.org/1999/xlink">
<g id="graph1" class="graph" transform="scale(1 1) rotate(0) translate(4 260)">
<title>G</title>
<polygon fill="white" stroke="white" points="-4,5 -4,-260 659,-260 659,5 -4,5"/>
<g id="graph2" class="cluster"><title>cluster_arp_request</title>
<polygon fill="none" stroke="black" points="8,-8 8,-248 382,-248 382,-8 8,-8"/>
<text text-anchor="middle" x="195" y="-231.4" font-family="Times Roman,serif" font-size="14.00">arp_request</text>
</g>
<g id="graph3" class="cluster"><title>cluster_arp_reply</title>
<polygon fill="mintcream" stroke="black" points="390,-8 390,-248 646,-248 646,-8 390,-8"/>
<text text-anchor="middle" x="518" y="-231.4" font-family="Times Roman,serif" font-size="14.00">arp_reply</text>
</g>
<!-- 收到ARP request包 -->
<g id="node2" class="node"><title>收到ARP request包</title>
<polygon fill="none" stroke="black" points="265,-214 125,-214 125,-178 265,-178 265,-214"/>
<text text-anchor="middle" x="195" y="-192.4" font-family="FangSong" font-size="14.00">收到ARP request包</text>
</g>
<!-- 查看目的地址 -->
<g id="node4" class="node"><title>查看目的地址</title>
<polygon fill="none" stroke="black" points="241,-140 149,-140 149,-104 241,-104 241,-140"/>
<text text-anchor="middle" x="195" y="-117.4" font-family="FangSong" font-size="14.00">查看目的地址</text>
</g>
<!-- 收到ARP request包&#45;&gt;查看目的地址 -->
<g id="edge3" class="edge"><title>收到ARP request包&#45;&gt;查看目的地址</title>
<path fill="none" stroke="black" d="M195,-177.708C195,-169.464 195,-159.538 195,-150.362"/>
<polygon fill="black" stroke="black" points="198.5,-150.082 195,-140.082 191.5,-150.082 198.5,-150.082"/>
</g>
<!-- 在本地arp缓存中更新此主机的arp条目,返回ARP REPLY包 -->
<g id="node6" class="node"><title>在本地arp缓存中更新此主机的arp条目,返回ARP REPLY包</title>
<polygon fill="none" stroke="black" points="374,-52 16,-52 16,-16 374,-16 374,-52"/>
<text text-anchor="middle" x="195" y="-30.4" font-family="FangSong" font-size="14.00">在本地arp缓存中更新此主机的arp条目,返回ARP REPLY包</text>
</g>
<!-- 查看目的地址&#45;&gt;在本地arp缓存中更新此主机的arp条目,返回ARP REPLY包 -->
<g id="edge5" class="edge"><title>查看目的地址&#45;&gt;在本地arp缓存中更新此主机的arp条目,返回ARP REPLY包</title>
<path fill="none" stroke="black" d="M195,-103.766C195,-91.8492 195,-76.0384 195,-62.4817"/>
<polygon fill="black" stroke="black" points="198.5,-62.2103 195,-52.2103 191.5,-62.2103 198.5,-62.2103"/>
<text text-anchor="middle" x="240" y="-73.4" font-family="FangSong" font-size="14.00">目的地址是本机</text>
</g>
<!-- 收到ARP reply包 -->
<g id="node8" class="node"><title>收到ARP reply包</title>
<polygon fill="none" stroke="black" points="579,-214 457,-214 457,-178 579,-178 579,-214"/>
<text text-anchor="middle" x="518" y="-192.4" font-family="FangSong" font-size="14.00">收到ARP reply包</text>
</g>
<!-- 查看目的地址  -->
<g id="node10" class="node"><title>查看目的地址 </title>
<polygon fill="none" stroke="black" points="567,-140 469,-140 469,-104 567,-104 567,-140"/>
<text text-anchor="middle" x="518" y="-118.4" font-family="FangSong" font-size="14.00">查看目的地址 </text>
</g>
<!-- 收到ARP reply包&#45;&gt;查看目的地址  -->
<g id="edge8" class="edge"><title>收到ARP reply包&#45;&gt;查看目的地址 </title>
<path fill="none" stroke="black" d="M518,-177.708C518,-169.464 518,-159.538 518,-150.362"/>
<polygon fill="black" stroke="black" points="521.5,-150.082 518,-140.082 514.5,-150.082 521.5,-150.082"/>
</g>
<!-- 在本地arp缓存中更新此主机的arp条目 -->
<g id="node12" class="node"><title>在本地arp缓存中更新此主机的arp条目</title>
<polygon fill="none" stroke="black" points="638,-52 398,-52 398,-16 638,-16 638,-52"/>
<text text-anchor="middle" x="518" y="-30.4" font-family="FangSong" font-size="14.00">在本地arp缓存中更新此主机的arp条目</text>
</g>
<!-- 查看目的地址 &#45;&gt;在本地arp缓存中更新此主机的arp条目 -->
<g id="edge10" class="edge"><title>查看目的地址 &#45;&gt;在本地arp缓存中更新此主机的arp条目</title>
<path fill="none" stroke="black" d="M518,-103.766C518,-91.8492 518,-76.0384 518,-62.4817"/>
<polygon fill="black" stroke="black" points="521.5,-62.2103 518,-52.2103 514.5,-62.2103 521.5,-62.2103"/>
<text text-anchor="middle" x="563" y="-73.4" font-family="FangSong" font-size="14.00">目的地址是本机</text>
</g>
</g>
</svg>
