<?xml version="1.0" encoding="UTF-8" standalone="no"?>
<!DOCTYPE svg PUBLIC "-//W3C//DTD SVG 1.1//EN"
 "http://www.w3.org/Graphics/SVG/1.1/DTD/svg11.dtd">
<!-- Generated by graphviz version 2.26.3 (20100126.1600)
 -->
<!-- Title: G Pages: 1 -->
<svg width="287pt" height="288pt"
 viewBox="0.00 0.00 287.13 288.00" xmlns="http://www.w3.org/2000/svg" xmlns:xlink="http://www.w3.org/1999/xlink">
<g id="graph1" class="graph" transform="scale(0.86747 0.86747) rotate(0) translate(4 328)">
<title>G</title>
<polygon fill="white" stroke="white" points="-4,5 -4,-328 328,-328 328,5 -4,5"/>
<!-- main -->
<g id="node1" class="node"><title>main</title>
<polygon fill="none" stroke="black" points="207,-324 153,-324 153,-288 207,-288 207,-324"/>
<text text-anchor="middle" x="180" y="-302.4" font-family="Times Roman,serif" font-size="14.00">main</text>
</g>
<!-- parse -->
<g id="node3" class="node"><title>parse</title>
<ellipse fill="none" stroke="black" cx="131" cy="-231" rx="38.1838" ry="18.3848"/>
<text text-anchor="middle" x="131" y="-227.4" font-family="Times Roman,serif" font-size="14.00">parse</text>
</g>
<!-- main&#45;&gt;parse -->
<g id="edge2" class="edge"><title>main&#45;&gt;parse</title>
<path fill="none" stroke="black" d="M168.138,-287.845C162.136,-278.657 154.74,-267.337 148.132,-257.223"/>
<polygon fill="black" stroke="black" points="150.983,-255.187 142.583,-248.729 145.123,-259.015 150.983,-255.187"/>
</g>
<!-- init -->
<g id="node7" class="node"><title>init</title>
<ellipse fill="none" stroke="black" cx="203" cy="-175" rx="27.0758" ry="18.3848"/>
<text text-anchor="middle" x="203" y="-171.4" font-family="Times Roman,serif" font-size="14.00">init</text>
</g>
<!-- main&#45;&gt;init -->
<g id="edge6" class="edge"><title>main&#45;&gt;init</title>
<path fill="none" stroke="black" stroke-dasharray="1,5" d="M183.198,-287.785C187.038,-265.911 193.524,-228.973 198.021,-203.357"/>
<polygon fill="black" stroke="black" points="201.473,-203.937 199.755,-193.483 194.578,-202.727 201.473,-203.937"/>
</g>
<!-- cleanup -->
<g id="node9" class="node"><title>cleanup</title>
<ellipse fill="none" stroke="black" cx="274" cy="-231" rx="48.9975" ry="18.3848"/>
<text text-anchor="middle" x="274" y="-227.4" font-family="Times Roman,serif" font-size="14.00">cleanup</text>
</g>
<!-- main&#45;&gt;cleanup -->
<g id="edge8" class="edge"><title>main&#45;&gt;cleanup</title>
<path fill="none" stroke="black" d="M202.755,-287.845C215.354,-277.792 231.154,-265.186 244.671,-254.401"/>
<polygon fill="black" stroke="black" points="247.109,-256.933 252.743,-247.96 242.744,-251.461 247.109,-256.933"/>
</g>
<!-- printf -->
<g id="node13" class="node"><title>printf</title>
<ellipse fill="none" stroke="black" cx="38" cy="-31" rx="38.1838" ry="18.3848"/>
<text text-anchor="middle" x="38" y="-27.4" font-family="Times Roman,serif" font-size="14.00">printf</text>
</g>
<!-- main&#45;&gt;printf -->
<g id="edge16" class="edge"><title>main&#45;&gt;printf</title>
<path fill="none" stroke="red" stroke-width="2" d="M152.648,-295.327C131.655,-285.994 103.12,-270.689 84,-250 35.1783,-197.17 32.9155,-106.199 35.402,-59.8943"/>
<polygon fill="red" stroke="red" points="38.9111,-59.8686 36.0701,-49.6618 31.9259,-59.4125 38.9111,-59.8686"/>
<text text-anchor="middle" x="86" y="-171.4" font-family="Times Roman,serif" font-size="14.00">100 times</text>
</g>
<!-- execute -->
<g id="node5" class="node"><title>execute</title>
<ellipse fill="none" stroke="black" cx="131" cy="-119" rx="50.2046" ry="18.3848"/>
<text text-anchor="middle" x="131" y="-115.4" font-family="Times Roman,serif" font-size="14.00">execute</text>
</g>
<!-- parse&#45;&gt;execute -->
<g id="edge4" class="edge"><title>parse&#45;&gt;execute</title>
<path fill="none" stroke="black" d="M131,-212.254C131,-194.729 131,-168.296 131,-148.041"/>
<polygon fill="black" stroke="black" points="134.5,-147.807 131,-137.807 127.5,-147.807 134.5,-147.807"/>
</g>
<!-- make_string -->
<g id="node12" class="node"><title>make_string</title>
<ellipse fill="none" stroke="black" cx="232" cy="-31" rx="46.1672" ry="31.1127"/>
<text text-anchor="middle" x="232" y="-36.4" font-family="Times Roman,serif" font-size="14.00">make a</text>
<text text-anchor="middle" x="232" y="-18.4" font-family="Times Roman,serif" font-size="14.00">string</text>
</g>
<!-- execute&#45;&gt;make_string -->
<g id="edge11" class="edge"><title>execute&#45;&gt;make_string</title>
<path fill="none" stroke="black" d="M150.954,-101.614C163.781,-90.4386 180.818,-75.5941 195.961,-62.4002"/>
<polygon fill="black" stroke="black" points="198.434,-64.8874 203.675,-55.6793 193.836,-59.6097 198.434,-64.8874"/>
</g>
<!-- execute&#45;&gt;printf -->
<g id="edge12" class="edge"><title>execute&#45;&gt;printf</title>
<path fill="none" stroke="black" d="M112.626,-101.614C98.3418,-88.0977 78.3854,-69.2141 62.7035,-54.3753"/>
<polygon fill="black" stroke="black" points="65.0613,-51.7878 55.392,-47.457 60.2501,-56.8724 65.0613,-51.7878"/>
</g>
<!-- compare -->
<g id="node17" class="node"><title>compare</title>
<polygon fill="#c1b2ff" stroke="#c1b2ff" points="168,-49 94,-49 94,-13 168,-13 168,-49"/>
<text text-anchor="middle" x="131" y="-27.4" font-family="Times Roman,serif" font-size="14.00">compare</text>
</g>
<!-- execute&#45;&gt;compare -->
<g id="edge18" class="edge"><title>execute&#45;&gt;compare</title>
<path fill="none" stroke="red" d="M131,-100.337C131,-88.3944 131,-72.6734 131,-59.2207"/>
<polygon fill="red" stroke="red" points="134.5,-59.0337 131,-49.0338 127.5,-59.0338 134.5,-59.0337"/>
</g>
<!-- init&#45;&gt;make_string -->
<g id="edge14" class="edge"><title>init&#45;&gt;make_string</title>
<path fill="none" stroke="black" d="M206.732,-156.469C211.024,-135.159 218.199,-99.5309 223.809,-71.6744"/>
<polygon fill="black" stroke="black" points="227.253,-72.2981 225.796,-61.8039 220.391,-70.9161 227.253,-72.2981"/>
</g>
</g>
</svg>
