<?xml version="1.0" encoding="UTF-8" standalone="no"?>
<!DOCTYPE svg PUBLIC "-//W3C//DTD SVG 1.1//EN"
 "http://www.w3.org/Graphics/SVG/1.1/DTD/svg11.dtd">
<!-- Generated by graphviz version 2.26.3 (20100126.1600)
 -->
<!-- Title: G Pages: 1 -->
<svg width="368pt" height="268pt"
 viewBox="0.00 0.00 368.00 268.00" xmlns="http://www.w3.org/2000/svg" xmlns:xlink="http://www.w3.org/1999/xlink">
<g id="graph1" class="graph" transform="scale(1 1) rotate(0) translate(4 264)">
<title>G</title>
<polygon fill="white" stroke="white" points="-4,5 -4,-264 365,-264 365,5 -4,5"/>
<!-- main -->
<g id="node1" class="node"><title>main</title>
<ellipse fill="none" stroke="black" cx="192" cy="-241" rx="34.8574" ry="18.3848"/>
<text text-anchor="middle" x="192" y="-237.4" font-family="Times Roman,serif" font-size="14.00">main</text>
</g>
<!-- parse -->
<g id="node3" class="node"><title>parse</title>
<ellipse fill="none" stroke="black" cx="140" cy="-167" rx="38.1838" ry="18.3848"/>
<text text-anchor="middle" x="140" y="-163.4" font-family="Times Roman,serif" font-size="14.00">parse</text>
</g>
<!-- main&#45;&gt;parse -->
<g id="edge2" class="edge"><title>main&#45;&gt;parse</title>
<path fill="none" stroke="black" d="M179.677,-223.463C173.312,-214.406 165.419,-203.173 158.352,-193.117"/>
<polygon fill="black" stroke="black" points="161.028,-190.837 152.415,-184.668 155.301,-194.862 161.028,-190.837"/>
</g>
<!-- init -->
<g id="node6" class="node"><title>init</title>
<ellipse fill="none" stroke="black" cx="72" cy="-93" rx="27.0758" ry="18.3848"/>
<text text-anchor="middle" x="72" y="-89.4" font-family="Times Roman,serif" font-size="14.00">init</text>
</g>
<!-- main&#45;&gt;init -->
<g id="edge5" class="edge"><title>main&#45;&gt;init</title>
<path fill="none" stroke="black" d="M161.48,-231.642C139.176,-223.231 109.974,-208.661 93,-186 79.1209,-167.471 74.139,-141.429 72.4752,-121.614"/>
<polygon fill="black" stroke="black" points="75.9677,-121.382 71.8673,-111.613 68.9806,-121.807 75.9677,-121.382"/>
</g>
<!-- cleanup -->
<g id="node8" class="node"><title>cleanup</title>
<ellipse fill="none" stroke="black" cx="245" cy="-167" rx="48.9975" ry="18.3848"/>
<text text-anchor="middle" x="245" y="-163.4" font-family="Times Roman,serif" font-size="14.00">cleanup</text>
</g>
<!-- main&#45;&gt;cleanup -->
<g id="edge7" class="edge"><title>main&#45;&gt;cleanup</title>
<path fill="none" stroke="black" d="M204.56,-223.463C211,-214.472 218.975,-203.337 226.137,-193.337"/>
<polygon fill="black" stroke="black" points="229.184,-195.093 232.162,-184.925 223.493,-191.017 229.184,-195.093"/>
</g>
<!-- printf -->
<g id="node12" class="node"><title>printf</title>
<ellipse fill="none" stroke="black" cx="322" cy="-19" rx="38.1838" ry="18.3848"/>
<text text-anchor="middle" x="322" y="-15.4" font-family="Times Roman,serif" font-size="14.00">printf</text>
</g>
<!-- main&#45;&gt;printf -->
<g id="edge15" class="edge"><title>main&#45;&gt;printf</title>
<path fill="none" stroke="black" d="M224.574,-233.878C250.239,-226.461 284.651,-212.14 303,-186 331.867,-144.875 330.497,-83.5214 326.506,-47.7556"/>
<polygon fill="black" stroke="black" points="329.94,-47.0105 325.214,-37.528 322.995,-47.8879 329.94,-47.0105"/>
</g>
<!-- execute -->
<g id="node4" class="node"><title>execute</title>
<ellipse fill="none" stroke="black" cx="189" cy="-93" rx="50.2046" ry="18.3848"/>
<text text-anchor="middle" x="189" y="-89.4" font-family="Times Roman,serif" font-size="14.00">execute</text>
</g>
<!-- parse&#45;&gt;execute -->
<g id="edge3" class="edge"><title>parse&#45;&gt;execute</title>
<path fill="none" stroke="black" d="M151.862,-149.087C157.717,-140.244 164.898,-129.399 171.38,-119.61"/>
<polygon fill="black" stroke="black" points="174.475,-121.275 177.078,-111.005 168.639,-117.41 174.475,-121.275"/>
</g>
<!-- make_string -->
<g id="node10" class="node"><title>make_string</title>
<ellipse fill="none" stroke="black" cx="71" cy="-19" rx="70.9184" ry="18.3848"/>
<text text-anchor="middle" x="71" y="-15.4" font-family="Times Roman,serif" font-size="14.00">make_string</text>
</g>
<!-- execute&#45;&gt;make_string -->
<g id="edge9" class="edge"><title>execute&#45;&gt;make_string</title>
<path fill="none" stroke="black" d="M163.396,-76.9431C146.969,-66.6416 125.393,-53.1106 107.221,-41.7152"/>
<polygon fill="black" stroke="black" points="108.944,-38.6639 98.6122,-36.3161 105.225,-44.5942 108.944,-38.6639"/>
</g>
<!-- execute&#45;&gt;printf -->
<g id="edge11" class="edge"><title>execute&#45;&gt;printf</title>
<path fill="none" stroke="black" d="M216.881,-77.4872C237.543,-65.9913 265.816,-50.2604 287.836,-38.0083"/>
<polygon fill="black" stroke="black" points="289.814,-40.9134 296.851,-32.9929 286.41,-34.7965 289.814,-40.9134"/>
</g>
<!-- compare -->
<g id="node16" class="node"><title>compare</title>
<ellipse fill="none" stroke="black" cx="213" cy="-19" rx="53.033" ry="18.3848"/>
<text text-anchor="middle" x="213" y="-15.4" font-family="Times Roman,serif" font-size="14.00">compare</text>
</g>
<!-- execute&#45;&gt;compare -->
<g id="edge17" class="edge"><title>execute&#45;&gt;compare</title>
<path fill="none" stroke="black" d="M195.056,-74.3267C197.72,-66.114 200.906,-56.2897 203.85,-47.2139"/>
<polygon fill="black" stroke="black" points="207.273,-48.003 207.029,-37.411 200.614,-45.8434 207.273,-48.003"/>
</g>
<!-- init&#45;&gt;make_string -->
<g id="edge13" class="edge"><title>init&#45;&gt;make_string</title>
<path fill="none" stroke="black" d="M71.7477,-74.3267C71.6387,-66.2639 71.5088,-56.6477 71.388,-47.7115"/>
<polygon fill="black" stroke="black" points="74.8872,-47.6191 71.2523,-37.6674 67.8878,-47.7138 74.8872,-47.6191"/>
</g>
</g>
</svg>
