<?xml version="1.0" encoding="UTF-8" standalone="no"?>
<!DOCTYPE svg PUBLIC "-//W3C//DTD SVG 1.1//EN"
 "http://www.w3.org/Graphics/SVG/1.1/DTD/svg11.dtd">
<!-- Generated by graphviz version 2.26.3 (20100126.1600)
 -->
<!-- Title: G Pages: 1 -->
<svg width="681pt" height="534pt"
 viewBox="0.00 0.00 681.00 534.00" xmlns="http://www.w3.org/2000/svg" xmlns:xlink="http://www.w3.org/1999/xlink">
<g id="graph1" class="graph" transform="scale(1 1) rotate(0) translate(4 530)">
<title>G</title>
<polygon fill="white" stroke="white" points="-4,5 -4,-530 678,-530 678,5 -4,5"/>
<!-- S_INITIAL -->
<g id="node1" class="node"><title>S_INITIAL</title>
<polygon fill="none" stroke="black" points="103,-526 19,-526 19,-490 103,-490 103,-526"/>
<text text-anchor="middle" x="61" y="-504.4" font-family="FangSong" font-size="14.00">S_INITIAL</text>
</g>
<!-- S_PRE_START -->
<g id="node3" class="node"><title>S_PRE_START</title>
<polygon fill="none" stroke="black" points="117,-438 5,-438 5,-402 117,-402 117,-438"/>
<text text-anchor="middle" x="61" y="-416.4" font-family="FangSong" font-size="14.00">S_PRE_START</text>
</g>
<!-- S_INITIAL&#45;&gt;S_PRE_START -->
<g id="edge2" class="edge"><title>S_INITIAL&#45;&gt;S_PRE_START</title>
<path fill="none" stroke="black" d="M61,-489.766C61,-477.849 61,-462.038 61,-448.482"/>
<polygon fill="black" stroke="black" points="64.5001,-448.21 61,-438.21 57.5001,-448.21 64.5001,-448.21"/>
<text text-anchor="middle" x="74" y="-459.4" font-family="FangSong" font-size="14.00">测试</text>
</g>
<!-- S_START -->
<g id="node5" class="node"><title>S_START</title>
<polygon fill="none" stroke="black" points="100,-348 22,-348 22,-312 100,-312 100,-348"/>
<text text-anchor="middle" x="61" y="-326.4" font-family="FangSong" font-size="14.00">S_START</text>
</g>
<!-- S_PRE_START&#45;&gt;S_START -->
<g id="edge4" class="edge"><title>S_PRE_START&#45;&gt;S_START</title>
<path fill="none" stroke="black" d="M61,-401.787C61,-389.344 61,-372.605 61,-358.421"/>
<polygon fill="black" stroke="black" points="64.5001,-358.186 61,-348.186 57.5001,-358.186 64.5001,-358.186"/>
<text text-anchor="middle" x="367" y="-371.4" font-family="FangSong" font-size="14.00">receive server&#39;s first packet(ack my first packet) and send ack of the server&#39;s first packet </text>
</g>
<!-- S_SENT_KEY -->
<g id="node7" class="node"><title>S_SENT_KEY</title>
<polygon fill="none" stroke="black" points="113,-274 9,-274 9,-238 113,-238 113,-274"/>
<text text-anchor="middle" x="61" y="-252.4" font-family="FangSong" font-size="14.00">S_SENT_KEY</text>
</g>
<!-- S_START&#45;&gt;S_SENT_KEY -->
<g id="edge6" class="edge"><title>S_START&#45;&gt;S_SENT_KEY</title>
<path fill="none" stroke="black" d="M61,-311.708C61,-303.464 61,-293.538 61,-284.362"/>
<polygon fill="black" stroke="black" points="64.5001,-284.082 61,-274.082 57.5001,-284.082 64.5001,-284.082"/>
</g>
<!-- S_GOT_KEY -->
<g id="node9" class="node"><title>S_GOT_KEY</title>
<polygon fill="none" stroke="black" points="110,-200 12,-200 12,-164 110,-164 110,-200"/>
<text text-anchor="middle" x="61" y="-178.4" font-family="FangSong" font-size="14.00">S_GOT_KEY</text>
</g>
<!-- S_SENT_KEY&#45;&gt;S_GOT_KEY -->
<g id="edge8" class="edge"><title>S_SENT_KEY&#45;&gt;S_GOT_KEY</title>
<path fill="none" stroke="black" d="M61,-237.708C61,-229.464 61,-219.538 61,-210.362"/>
<polygon fill="black" stroke="black" points="64.5001,-210.082 61,-200.082 57.5001,-210.082 64.5001,-210.082"/>
</g>
<!-- S_ACTIVE -->
<g id="node11" class="node"><title>S_ACTIVE</title>
<polygon fill="none" stroke="black" points="103,-126 19,-126 19,-90 103,-90 103,-126"/>
<text text-anchor="middle" x="61" y="-104.4" font-family="FangSong" font-size="14.00">S_ACTIVE</text>
</g>
<!-- S_GOT_KEY&#45;&gt;S_ACTIVE -->
<g id="edge10" class="edge"><title>S_GOT_KEY&#45;&gt;S_ACTIVE</title>
<path fill="none" stroke="black" d="M61,-163.708C61,-155.464 61,-145.538 61,-136.362"/>
<polygon fill="black" stroke="black" points="64.5001,-136.082 61,-126.082 57.5001,-136.082 64.5001,-136.082"/>
</g>
<!-- S_NORMAL_OP -->
<g id="node13" class="node"><title>S_NORMAL_OP</title>
<polygon fill="none" stroke="black" points="122,-36 5.68434e-14,-36 7.10543e-15,-1.77636e-14 122,-3.55271e-15 122,-36"/>
<text text-anchor="middle" x="61" y="-14.4" font-family="FangSong" font-size="14.00">S_NORMAL_OP</text>
</g>
<!-- S_ACTIVE&#45;&gt;S_NORMAL_OP -->
<g id="edge12" class="edge"><title>S_ACTIVE&#45;&gt;S_NORMAL_OP</title>
<path fill="none" stroke="black" d="M61,-89.7872C61,-77.3443 61,-60.6053 61,-46.4211"/>
<polygon fill="black" stroke="black" points="64.5001,-46.1857 61,-36.1858 57.5001,-46.1858 64.5001,-46.1857"/>
<text text-anchor="middle" x="123.5" y="-59.4" font-family="FangSong" font-size="14.00">negotiate timeout</text>
</g>
<!-- A -->
<g id="node14" class="node"><title>A</title>
<polygon fill="none" stroke="black" points="189,-526 135,-526 135,-490 189,-490 189,-526"/>
<text text-anchor="middle" x="162" y="-504.4" font-family="FangSong" font-size="14.00">A</text>
</g>
<!-- B -->
<g id="node16" class="node"><title>B</title>
<polygon fill="none" stroke="black" points="189,-438 135,-438 135,-402 189,-402 189,-438"/>
<text text-anchor="middle" x="162" y="-416.4" font-family="FangSong" font-size="14.00">B</text>
</g>
<!-- A&#45;&gt;B -->
<g id="edge14" class="edge"><title>A&#45;&gt;B</title>
<path fill="none" stroke="black" d="M162,-489.766C162,-477.849 162,-462.038 162,-448.482"/>
<polygon fill="black" stroke="black" points="165.5,-448.21 162,-438.21 158.5,-448.21 165.5,-448.21"/>
<text text-anchor="middle" x="181.5" y="-459.4" font-family="FangSong" font-size="14.00">娴嬭瘯</text>
</g>
</g>
</svg>
