<?xml version="1.0" encoding="UTF-8" standalone="no"?>
<!DOCTYPE svg PUBLIC "-//W3C//DTD SVG 1.1//EN"
 "http://www.w3.org/Graphics/SVG/1.1/DTD/svg11.dtd">
<!-- Generated by graphviz version 2.26.3 (20100126.1600)
 -->
<!-- Title: g Pages: 1 -->
<svg width="320pt" height="220pt"
 viewBox="0.00 0.00 320.00 220.00" xmlns="http://www.w3.org/2000/svg" xmlns:xlink="http://www.w3.org/1999/xlink">
<g id="graph1" class="graph" transform="scale(1 1) rotate(0) translate(4 216)">
<title>g</title>
<polygon fill="white" stroke="white" points="-4,5 -4,-216 317,-216 317,5 -4,5"/>
<!-- node0 -->
<g id="node1" class="node"><title>node0</title>
<polygon fill="none" stroke="black" points="0.5,-0 0.5,-208 21.5,-208 21.5,-0 0.5,-0"/>
<text text-anchor="middle" x="11" y="-191.4" font-family="Times Roman,serif" font-size="14.00"> </text>
<polyline fill="none" stroke="black" points="0.5,-182 21.5,-182 "/>
<text text-anchor="middle" x="11" y="-165.4" font-family="Times Roman,serif" font-size="14.00"> </text>
<polyline fill="none" stroke="black" points="0.5,-156 21.5,-156 "/>
<text text-anchor="middle" x="11" y="-139.4" font-family="Times Roman,serif" font-size="14.00"> </text>
<polyline fill="none" stroke="black" points="0.5,-130 21.5,-130 "/>
<text text-anchor="middle" x="11" y="-113.4" font-family="Times Roman,serif" font-size="14.00"> </text>
<polyline fill="none" stroke="black" points="0.5,-104 21.5,-104 "/>
<text text-anchor="middle" x="11" y="-87.4" font-family="Times Roman,serif" font-size="14.00"> </text>
<polyline fill="none" stroke="black" points="0.5,-78 21.5,-78 "/>
<text text-anchor="middle" x="11" y="-61.4" font-family="Times Roman,serif" font-size="14.00"> </text>
<polyline fill="none" stroke="black" points="0.5,-52 21.5,-52 "/>
<text text-anchor="middle" x="11" y="-35.4" font-family="Times Roman,serif" font-size="14.00"> </text>
<polyline fill="none" stroke="black" points="0.5,-26 21.5,-26 "/>
<text text-anchor="middle" x="11" y="-9.4" font-family="Times Roman,serif" font-size="14.00"> </text>
</g>
<!-- node1 -->
<g id="node2" class="node"><title>node1</title>
<polygon fill="none" stroke="black" points="58.5,-186 58.5,-212 167.5,-212 167.5,-186 58.5,-186"/>
<text text-anchor="middle" x="80.5" y="-195.4" font-family="Times Roman,serif" font-size="14.00">n14</text>
<polyline fill="none" stroke="black" points="102.5,-186 102.5,-212 "/>
<text text-anchor="middle" x="124.5" y="-195.4" font-family="Times Roman,serif" font-size="14.00">719</text>
<polyline fill="none" stroke="black" points="146.5,-186 146.5,-212 "/>
<text text-anchor="middle" x="157" y="-195.4" font-family="Times Roman,serif" font-size="14.00"> </text>
</g>
<!-- node0&#45;&gt;node1 -->
<g id="edge2" class="edge"><title>node0:f0&#45;&gt;node1:n</title>
<path fill="none" stroke="black" d="M22,-195C34.0738,-195 39.2315,-197.25 47.8473,-198.375"/>
<polygon fill="black" stroke="black" points="47.8038,-201.879 58,-199 48.234,-194.892 47.8038,-201.879"/>
</g>
<!-- node2 -->
<g id="node3" class="node"><title>node2</title>
<polygon fill="none" stroke="black" points="59,-156 59,-182 167,-182 167,-156 59,-156"/>
<text text-anchor="middle" x="77.5" y="-165.4" font-family="Times Roman,serif" font-size="14.00">a1</text>
<polyline fill="none" stroke="black" points="96,-156 96,-182 "/>
<text text-anchor="middle" x="119.5" y="-165.4" font-family="Times Roman,serif" font-size="14.00">719</text>
<polyline fill="none" stroke="black" points="143,-156 143,-182 "/>
<text text-anchor="middle" x="155" y="-165.4" font-family="Times Roman,serif" font-size="14.00"> </text>
</g>
<!-- node0&#45;&gt;node2 -->
<g id="edge4" class="edge"><title>node0:f1&#45;&gt;node2:n</title>
<path fill="none" stroke="black" d="M22,-169C34.4618,-169 39.8408,-169 48.8719,-169"/>
<polygon fill="black" stroke="black" points="49,-172.5 59,-169 49,-165.5 49,-172.5"/>
</g>
<!-- node3 -->
<g id="node4" class="node"><title>node3</title>
<polygon fill="none" stroke="black" points="59,-126 59,-152 167,-152 167,-126 59,-126"/>
<text text-anchor="middle" x="75.5" y="-135.4" font-family="Times Roman,serif" font-size="14.00">i9</text>
<polyline fill="none" stroke="black" points="92,-126 92,-152 "/>
<text text-anchor="middle" x="116.5" y="-135.4" font-family="Times Roman,serif" font-size="14.00">512</text>
<polyline fill="none" stroke="black" points="141,-126 141,-152 "/>
<text text-anchor="middle" x="154" y="-135.4" font-family="Times Roman,serif" font-size="14.00"> </text>
</g>
<!-- node0&#45;&gt;node3 -->
<g id="edge6" class="edge"><title>node0:f2&#45;&gt;node3:n</title>
<path fill="none" stroke="black" d="M22,-143C34.5344,-143 39.821,-140.703 48.8447,-139.59"/>
<polygon fill="black" stroke="black" points="49.22,-143.074 59,-139 48.8137,-136.086 49.22,-143.074"/>
</g>
<!-- node4 -->
<g id="node5" class="node"><title>node4</title>
<polygon fill="none" stroke="black" points="59,-54 59,-80 167,-80 167,-54 59,-54"/>
<text text-anchor="middle" x="77.5" y="-63.4" font-family="Times Roman,serif" font-size="14.00">e5</text>
<polyline fill="none" stroke="black" points="96,-54 96,-80 "/>
<text text-anchor="middle" x="119.5" y="-63.4" font-family="Times Roman,serif" font-size="14.00">632</text>
<polyline fill="none" stroke="black" points="143,-54 143,-80 "/>
<text text-anchor="middle" x="155" y="-63.4" font-family="Times Roman,serif" font-size="14.00"> </text>
</g>
<!-- node0&#45;&gt;node4 -->
<g id="edge8" class="edge"><title>node0:f5&#45;&gt;node4:n</title>
<path fill="none" stroke="black" d="M22,-65C34.48,-65 39.8359,-66.1486 48.8651,-66.7049"/>
<polygon fill="black" stroke="black" points="48.9023,-70.2074 59,-67 49.1061,-63.2103 48.9023,-70.2074"/>
</g>
<!-- node5 -->
<g id="node6" class="node"><title>node5</title>
<polygon fill="none" stroke="black" points="59,-24 59,-50 167,-50 167,-24 59,-24"/>
<text text-anchor="middle" x="79.5" y="-33.4" font-family="Times Roman,serif" font-size="14.00">t20</text>
<polyline fill="none" stroke="black" points="100,-24 100,-50 "/>
<text text-anchor="middle" x="122.5" y="-33.4" font-family="Times Roman,serif" font-size="14.00">959</text>
<polyline fill="none" stroke="black" points="145,-24 145,-50 "/>
<text text-anchor="middle" x="156" y="-33.4" font-family="Times Roman,serif" font-size="14.00"> </text>
</g>
<!-- node0&#45;&gt;node5 -->
<g id="edge10" class="edge"><title>node0:f6&#45;&gt;node5:n</title>
<path fill="none" stroke="black" d="M22,-39C34.48,-39 39.8359,-37.8514 48.8651,-37.2951"/>
<polygon fill="black" stroke="black" points="49.1061,-40.7897 59,-37 48.9023,-33.7926 49.1061,-40.7897"/>
</g>
<!-- node6 -->
<g id="node7" class="node"><title>node6</title>
<polygon fill="none" stroke="black" points="204,-156 204,-182 312,-182 312,-156 204,-156"/>
<text text-anchor="middle" x="225.5" y="-165.4" font-family="Times Roman,serif" font-size="14.00">o15</text>
<polyline fill="none" stroke="black" points="247,-156 247,-182 "/>
<text text-anchor="middle" x="269" y="-165.4" font-family="Times Roman,serif" font-size="14.00">794</text>
<polyline fill="none" stroke="black" points="291,-156 291,-182 "/>
<text text-anchor="middle" x="301.5" y="-165.4" font-family="Times Roman,serif" font-size="14.00"> </text>
</g>
<!-- node2&#45;&gt;node6 -->
<g id="edge12" class="edge"><title>node2:p&#45;&gt;node6:n</title>
<path fill="none" stroke="black" d="M167,-169C179.462,-169 184.841,-169 193.872,-169"/>
<polygon fill="black" stroke="black" points="194,-172.5 204,-169 194,-165.5 194,-172.5"/>
</g>
<!-- node7 -->
<g id="node8" class="node"><title>node7</title>
<polygon fill="none" stroke="black" points="204,-54 204,-80 312,-80 312,-54 204,-54"/>
<text text-anchor="middle" x="224.5" y="-63.4" font-family="Times Roman,serif" font-size="14.00">s19</text>
<polyline fill="none" stroke="black" points="245,-54 245,-80 "/>
<text text-anchor="middle" x="267.5" y="-63.4" font-family="Times Roman,serif" font-size="14.00">659</text>
<polyline fill="none" stroke="black" points="290,-54 290,-80 "/>
<text text-anchor="middle" x="301" y="-63.4" font-family="Times Roman,serif" font-size="14.00"> </text>
</g>
<!-- node4&#45;&gt;node7 -->
<g id="edge14" class="edge"><title>node4:p&#45;&gt;node7:n</title>
<path fill="none" stroke="black" d="M167,-67C179.462,-67 184.841,-67 193.872,-67"/>
<polygon fill="black" stroke="black" points="194,-70.5001 204,-67 194,-63.5001 194,-70.5001"/>
</g>
</g>
</svg>
