<?xml version="1.0" encoding="UTF-8" standalone="no"?>
<!DOCTYPE svg PUBLIC "-//W3C//DTD SVG 1.1//EN"
 "http://www.w3.org/Graphics/SVG/1.1/DTD/svg11.dtd">
<!-- Generated by graphviz version 2.26.3 (20100126.1600)
 -->
<!-- Title: G Pages: 1 -->
<svg width="1236pt" height="398pt"
 viewBox="0.00 0.00 1236.00 398.00" xmlns="http://www.w3.org/2000/svg" xmlns:xlink="http://www.w3.org/1999/xlink">
<g id="graph1" class="graph" transform="scale(1 1) rotate(0) translate(4 394)">
<title>G</title>
<polygon fill="white" stroke="white" points="-4,5 -4,-394 1233,-394 1233,5 -4,5"/>
<!-- main -->
<g id="node1" class="node"><title>main</title>
<polygon fill="none" stroke="black" points="474,-363 474,-389 528,-389 528,-363 474,-363"/>
<text text-anchor="middle" x="501" y="-372.4" font-family="Times Roman,serif" font-size="14.00">main</text>
</g>
<!-- tunnel_point_to_point -->
<g id="node2" class="node"><title>tunnel_point_to_point</title>
<polygon fill="none" stroke="black" points="253.5,-281 253.5,-307 422.5,-307 422.5,-281 253.5,-281"/>
<text text-anchor="middle" x="338" y="-290.4" font-family="Times Roman,serif" font-size="14.00">tunnel_point_to_point</text>
</g>
<!-- main&#45;&gt;tunnel_point_to_point -->
<g id="edge2" class="edge"><title>main:f0&#45;&gt;tunnel_point_to_point:f0</title>
<path fill="none" stroke="black" d="M475.507,-362.989C475.003,-362.818 474.501,-362.655 474,-362.5 445.071,-353.554 359.132,-366.619 339,-344 332.625,-336.838 331.564,-326.55 332.419,-317.166"/>
<polygon fill="black" stroke="black" points="335.894,-317.597 334.017,-307.17 328.982,-316.493 335.894,-317.597"/>
<text text-anchor="middle" x="490.5" y="-331.4" font-family="Times Roman,serif" font-size="14.00">c.options.mode==MODE_POINT_TO_POINT</text>
</g>
<!-- tunnel_server -->
<g id="node3" class="node"><title>tunnel_server</title>
<polygon fill="none" stroke="black" points="607.5,-281 607.5,-307 720.5,-307 720.5,-281 607.5,-281"/>
<text text-anchor="middle" x="664" y="-290.4" font-family="Times Roman,serif" font-size="14.00">tunnel_server</text>
</g>
<!-- main&#45;&gt;tunnel_server -->
<g id="edge4" class="edge"><title>main:f0&#45;&gt;tunnel_server:f0</title>
<path fill="none" stroke="black" d="M526.799,-362.901C527.201,-362.763 527.601,-362.629 528,-362.5 576.847,-346.731 601.406,-375.414 642,-344 650.573,-337.366 655.876,-326.689 659.12,-316.902"/>
<polygon fill="black" stroke="black" points="662.502,-317.803 661.806,-307.231 655.758,-315.929 662.502,-317.803"/>
<text text-anchor="middle" x="773.5" y="-331.4" font-family="Times Roman,serif" font-size="14.00">c.options.mode==MODE_SERVER</text>
</g>
<!-- tunnel_server_udp -->
<g id="node4" class="node"><title>tunnel_server_udp</title>
<polygon fill="none" stroke="black" points="436,-199 436,-225 582,-225 582,-199 436,-199"/>
<text text-anchor="middle" x="509" y="-208.4" font-family="Times Roman,serif" font-size="14.00">tunnel_server_udp</text>
</g>
<!-- tunnel_server&#45;&gt;tunnel_server_udp -->
<g id="edge6" class="edge"><title>tunnel_server:f0&#45;&gt;tunnel_server_udp:f0</title>
<path fill="none" stroke="black" d="M610.067,-280.94C609.374,-280.791 608.685,-280.645 608,-280.5 585.46,-275.743 520.764,-279.683 506,-262 499.845,-254.628 499.559,-244.311 501.223,-234.963"/>
<polygon fill="black" stroke="black" points="504.677,-235.579 503.722,-225.027 497.888,-233.871 504.677,-235.579"/>
<text text-anchor="middle" x="649" y="-249.4" font-family="Times Roman,serif" font-size="14.00">(&amp;c)&#45;&gt;options.ce.proto==PROTO_UDPv4</text>
</g>
<!-- tunnel_server_tcp -->
<g id="node5" class="node"><title>tunnel_server_tcp</title>
<polygon fill="none" stroke="black" points="747.5,-199 747.5,-225 888.5,-225 888.5,-199 747.5,-199"/>
<text text-anchor="middle" x="818" y="-208.4" font-family="Times Roman,serif" font-size="14.00">tunnel_server_tcp</text>
</g>
<!-- tunnel_server&#45;&gt;tunnel_server_tcp -->
<g id="edge8" class="edge"><title>tunnel_server:f0&#45;&gt;tunnel_server_tcp:f0</title>
<path fill="none" stroke="black" d="M717.953,-280.99C754.346,-272.204 795.797,-262.17 796,-262 804.224,-255.115 809.475,-244.555 812.775,-234.91"/>
<polygon fill="black" stroke="black" points="816.219,-235.601 815.639,-225.022 809.495,-233.654 816.219,-235.601"/>
<text text-anchor="middle" x="981" y="-249.4" font-family="Times Roman,serif" font-size="14.00">(&amp;c)&#45;&gt;options.ce.proto==PROTO_TCPv4_SERVER</text>
</g>
<!-- tunnel_server_udp_single_threaded -->
<g id="node6" class="node"><title>tunnel_server_udp_single_threaded</title>
<polygon fill="none" stroke="black" points="377.5,-133 377.5,-159 640.5,-159 640.5,-133 377.5,-133"/>
<text text-anchor="middle" x="509" y="-142.4" font-family="Times Roman,serif" font-size="14.00">tunnel_server_udp_single_threaded</text>
</g>
<!-- tunnel_server_udp&#45;&gt;tunnel_server_udp_single_threaded -->
<g id="edge10" class="edge"><title>tunnel_server_udp:f0&#45;&gt;tunnel_server_udp_single_threaded:f0</title>
<path fill="none" stroke="black" d="M509,-198.961C509,-190.463 509,-179.138 509,-169.141"/>
<polygon fill="black" stroke="black" points="512.5,-169.012 509,-159.012 505.5,-169.012 512.5,-169.012"/>
</g>
<!-- io_wait -->
<g id="node7" class="node"><title>io_wait</title>
<polygon fill="none" stroke="black" points="463.5,-67 463.5,-93 530.5,-93 530.5,-67 463.5,-67"/>
<text text-anchor="middle" x="497" y="-76.4" font-family="Times Roman,serif" font-size="14.00">io_wait</text>
</g>
<!-- tunnel_server_udp_single_threaded&#45;&gt;io_wait -->
<g id="edge12" class="edge"><title>tunnel_server_udp_single_threaded:f0&#45;&gt;io_wait:f0</title>
<path fill="none" stroke="black" d="M506.629,-132.961C505.084,-124.463 503.025,-113.138 501.208,-103.141"/>
<polygon fill="black" stroke="black" points="504.598,-102.225 499.366,-93.0124 497.711,-103.477 504.598,-102.225"/>
</g>
<!-- multi_process_io_udp -->
<g id="node8" class="node"><title>multi_process_io_udp</title>
<polygon fill="none" stroke="black" points="547.5,-67 547.5,-93 710.5,-93 710.5,-67 547.5,-67"/>
<text text-anchor="middle" x="629" y="-76.4" font-family="Times Roman,serif" font-size="14.00">multi_process_io_udp</text>
</g>
<!-- tunnel_server_udp_single_threaded&#45;&gt;multi_process_io_udp -->
<g id="edge14" class="edge"><title>tunnel_server_udp_single_threaded:f0&#45;&gt;multi_process_io_udp:f0</title>
<path fill="none" stroke="black" d="M532.708,-132.961C550.952,-122.927 576.366,-108.949 596.504,-97.8727"/>
<polygon fill="black" stroke="black" points="598.266,-100.898 605.341,-93.0124 594.892,-94.7649 598.266,-100.898"/>
</g>
<!-- multi_process_outgoing_link -->
<g id="node9" class="node"><title>multi_process_outgoing_link</title>
<polygon fill="none" stroke="black" points="-0.5,-1 -0.5,-27 210.5,-27 210.5,-1 -0.5,-1"/>
<text text-anchor="middle" x="105" y="-10.4" font-family="Times Roman,serif" font-size="14.00">multi_process_outgoing_link</text>
</g>
<!-- multi_process_io_udp&#45;&gt;multi_process_outgoing_link -->
<g id="edge16" class="edge"><title>multi_process_io_udp:f0&#45;&gt;multi_process_outgoing_link:f0</title>
<path fill="none" stroke="black" d="M551.412,-66.9868C550.267,-66.8216 549.129,-66.6592 548,-66.5 401.624,-45.8706 361.877,-45.8012 216.346,-28.2651"/>
<polygon fill="black" stroke="black" points="216.493,-24.7573 206.144,-27.0282 215.65,-31.7065 216.493,-24.7573"/>
</g>
<!-- multi_process_outgoing_tun -->
<g id="node10" class="node"><title>multi_process_outgoing_tun</title>
<polygon fill="none" stroke="black" points="228,-1 228,-27 438,-27 438,-1 228,-1"/>
<text text-anchor="middle" x="333" y="-10.4" font-family="Times Roman,serif" font-size="14.00">multi_process_outgoing_tun</text>
</g>
<!-- multi_process_io_udp&#45;&gt;multi_process_outgoing_tun -->
<g id="edge18" class="edge"><title>multi_process_io_udp:f0&#45;&gt;multi_process_outgoing_tun:f0</title>
<path fill="none" stroke="black" d="M570.52,-66.9605C521.87,-56.113 452.549,-40.6563 401.346,-29.2393"/>
<polygon fill="black" stroke="black" points="401.881,-25.7726 391.359,-27.0124 400.357,-32.6049 401.881,-25.7726"/>
</g>
<!-- read_incoming_link -->
<g id="node11" class="node"><title>read_incoming_link</title>
<polygon fill="none" stroke="black" points="455.5,-1 455.5,-27 604.5,-27 604.5,-1 455.5,-1"/>
<text text-anchor="middle" x="530" y="-10.4" font-family="Times Roman,serif" font-size="14.00">read_incoming_link</text>
</g>
<!-- multi_process_io_udp&#45;&gt;read_incoming_link -->
<g id="edge20" class="edge"><title>multi_process_io_udp:f0&#45;&gt;read_incoming_link:f0</title>
<path fill="none" stroke="black" d="M609.441,-66.9605C594.797,-57.1977 574.552,-43.7015 558.165,-32.777"/>
<polygon fill="black" stroke="black" points="559.781,-29.6473 549.519,-27.0124 555.898,-35.4716 559.781,-29.6473"/>
</g>
<!-- multi_process_incoming_link -->
<g id="node12" class="node"><title>multi_process_incoming_link</title>
<polygon fill="none" stroke="black" points="622,-1 622,-27 834,-27 834,-1 622,-1"/>
<text text-anchor="middle" x="728" y="-10.4" font-family="Times Roman,serif" font-size="14.00">multi_process_incoming_link</text>
</g>
<!-- multi_process_io_udp&#45;&gt;multi_process_incoming_link -->
<g id="edge22" class="edge"><title>multi_process_io_udp:f0&#45;&gt;multi_process_incoming_link:f0</title>
<path fill="none" stroke="black" d="M648.559,-66.9605C663.203,-57.1977 683.448,-43.7015 699.835,-32.777"/>
<polygon fill="black" stroke="black" points="702.102,-35.4716 708.481,-27.0124 698.219,-29.6473 702.102,-35.4716"/>
</g>
<!-- read_incoming_tun -->
<g id="node13" class="node"><title>read_incoming_tun</title>
<polygon fill="none" stroke="black" points="852,-1 852,-27 1000,-27 1000,-1 852,-1"/>
<text text-anchor="middle" x="926" y="-10.4" font-family="Times Roman,serif" font-size="14.00">read_incoming_tun</text>
</g>
<!-- multi_process_io_udp&#45;&gt;read_incoming_tun -->
<g id="edge25" class="edge"><title>multi_process_io_udp:f0&#45;&gt;read_incoming_tun:f0</title>
<path fill="none" stroke="black" d="M687.678,-66.9605C736.492,-56.113 806.047,-40.6563 857.423,-29.2393"/>
<polygon fill="black" stroke="black" points="858.442,-32.5984 867.444,-27.0124 856.923,-25.7651 858.442,-32.5984"/>
</g>
<!-- multi_process_incoming_tun -->
<g id="node14" class="node"><title>multi_process_incoming_tun</title>
<polygon fill="none" stroke="black" points="1017.5,-1 1017.5,-27 1228.5,-27 1228.5,-1 1017.5,-1"/>
<text text-anchor="middle" x="1123" y="-10.4" font-family="Times Roman,serif" font-size="14.00">multi_process_incoming_tun</text>
</g>
<!-- multi_process_io_udp&#45;&gt;multi_process_incoming_tun -->
<g id="edge27" class="edge"><title>multi_process_io_udp:f0&#45;&gt;multi_process_incoming_tun:f0</title>
<path fill="none" stroke="black" d="M707.019,-66.9405C708.019,-66.7917 709.013,-66.6447 710,-66.5 843.19,-46.976 879.377,-45.0499 1011.73,-28.2944"/>
<polygon fill="black" stroke="black" points="1012.37,-31.7411 1021.85,-27.0081 1011.49,-24.797 1012.37,-31.7411"/>
</g>
</g>
</svg>
