<?xml version="1.0" encoding="UTF-8" standalone="no"?>
<!DOCTYPE svg PUBLIC "-//W3C//DTD SVG 1.1//EN"
 "http://www.w3.org/Graphics/SVG/1.1/DTD/svg11.dtd">
<!-- Generated by graphviz version 2.26.3 (20100126.1600)
 -->
<!-- Title: G Pages: 1 -->
<svg width="192pt" height="234pt"
 viewBox="0.00 0.00 192.00 234.00" xmlns="http://www.w3.org/2000/svg" xmlns:xlink="http://www.w3.org/1999/xlink">
<g id="graph1" class="graph" transform="scale(1 1) rotate(0) translate(4 230)">
<title>G</title>
<polygon fill="white" stroke="white" points="-4,5 -4,-230 189,-230 189,5 -4,5"/>
<!-- a -->
<g id="node1" class="node"><title>a</title>
<polygon fill="lightblue" stroke="lightblue" points="90,-201.022 63,-216.725 36,-201.022 46.3131,-175.615 79.6869,-175.615 90,-201.022"/>
<polygon fill="none" stroke="lightblue" points="95.0121,-202.735 63,-221.352 30.9879,-202.735 43.6198,-171.615 82.3802,-171.615 95.0121,-202.735"/>
<polygon fill="none" stroke="lightblue" points="100.024,-204.447 63,-225.979 25.9759,-204.447 40.9264,-167.615 85.0736,-167.615 100.024,-204.447"/>
<text text-anchor="middle" x="63" y="-190.4" font-family="Times Roman,serif" font-size="14.00">a</text>
</g>
<!-- b -->
<g id="node3" class="node"><title>b</title>
<ellipse fill="none" stroke="black" cx="63" cy="-107" rx="27" ry="18.3848"/>
<text text-anchor="middle" x="63" y="-103.4" font-family="Times Roman,serif" font-size="14.00">b</text>
</g>
<!-- a&#45;&gt;b -->
<g id="edge2" class="edge"><title>a&#45;&gt;b</title>
<path fill="none" stroke="black" d="M63,-167.424C63,-157.411 63,-145.979 63,-135.774"/>
<polygon fill="black" stroke="black" points="66.5001,-135.694 63,-125.694 59.5001,-135.694 66.5001,-135.694"/>
</g>
<!-- c -->
<g id="node4" class="node"><title>c</title>
<polygon fill="none" stroke="black" points="54,-52 8.4571,-52 1.77636e-14,-1.77636e-14 45.5429,-0 54,-52"/>
<text text-anchor="middle" x="27" y="-22.4" font-family="Times Roman,serif" font-size="14.00">c</text>
</g>
<!-- b&#45;&gt;c -->
<g id="edge3" class="edge"><title>b&#45;&gt;c</title>
<path fill="none" stroke="black" d="M55.0104,-89.0235C51.4061,-80.9137 47.0165,-71.0372 42.7918,-61.5315"/>
<polygon fill="black" stroke="black" points="45.9169,-59.9451 38.6571,-52.2285 39.5202,-62.7881 45.9169,-59.9451"/>
</g>
<!-- d -->
<g id="node6" class="node"><title>d</title>
<polygon fill="none" stroke="black" points="126,-44 72,-44 72,-8 126,-8 126,-44"/>
<text text-anchor="middle" x="99" y="-22.4" font-family="Times Roman,serif" font-size="14.00">d</text>
</g>
<!-- b&#45;&gt;d -->
<g id="edge5" class="edge"><title>b&#45;&gt;d</title>
<path fill="none" stroke="black" d="M70.9896,-89.0235C75.618,-78.6095 81.5412,-65.2823 86.7476,-53.5678"/>
<polygon fill="black" stroke="black" points="90.0452,-54.766 90.9083,-44.2064 83.6485,-51.923 90.0452,-54.766"/>
</g>
<!-- e -->
<g id="node7" class="node"><title>e</title>
<polygon fill="none" stroke="black" points="183.755,-220 118.245,-220 137.145,-168 164.855,-168 183.755,-220"/>
<text text-anchor="middle" x="151" y="-190.4" font-family="Times Roman,serif" font-size="14.00">e</text>
</g>
</g>
</svg>
