<?xml version="1.0" encoding="UTF-8" standalone="no"?>
<!DOCTYPE svg PUBLIC "-//W3C//DTD SVG 1.1//EN"
 "http://www.w3.org/Graphics/SVG/1.1/DTD/svg11.dtd">
<!-- Generated by graphviz version 2.26.3 (20100126.1600)
 -->
<!-- Title: G Pages: 1 -->
<svg width="225pt" height="440pt"
 viewBox="0.00 0.00 225.00 440.00" xmlns="http://www.w3.org/2000/svg" xmlns:xlink="http://www.w3.org/1999/xlink">
<g id="graph1" class="graph" transform="scale(1 1) rotate(0) translate(4 436)">
<title>G</title>
<polygon fill="white" stroke="white" points="-4,5 -4,-436 222,-436 222,5 -4,5"/>
<g id="graph2" class="cluster"><title>cluster_0</title>
<polygon fill="lightgrey" stroke="lightgrey" points="8,-70 8,-372 101,-372 101,-70 8,-70"/>
<text text-anchor="middle" x="54.5" y="-355.4" font-family="Times Roman,serif" font-size="14.00">process #1</text>
</g>
<g id="graph3" class="cluster"><title>cluster_1</title>
<polygon fill="none" stroke="blue" points="116,-70 116,-372 209,-372 209,-70 116,-70"/>
<text text-anchor="middle" x="162.5" y="-355.4" font-family="Times Roman,serif" font-size="14.00">process #2</text>
</g>
<!-- a0 -->
<g id="node2" class="node"><title>a0</title>
<ellipse fill="white" stroke="white" cx="65" cy="-319" rx="27" ry="18.3848"/>
<text text-anchor="middle" x="65" y="-315.4" font-family="Times Roman,serif" font-size="14.00">a0</text>
</g>
<!-- a1 -->
<g id="node4" class="node"><title>a1</title>
<ellipse fill="white" stroke="white" cx="65" cy="-245" rx="27" ry="18.3848"/>
<text text-anchor="middle" x="65" y="-241.4" font-family="Times Roman,serif" font-size="14.00">a1</text>
</g>
<!-- a0&#45;&gt;a1 -->
<g id="edge3" class="edge"><title>a0&#45;&gt;a1</title>
<path fill="none" stroke="black" d="M65,-300.327C65,-292.264 65,-282.648 65,-273.711"/>
<polygon fill="black" stroke="black" points="68.5001,-273.667 65,-263.667 61.5001,-273.667 68.5001,-273.667"/>
</g>
<!-- a2 -->
<g id="node5" class="node"><title>a2</title>
<ellipse fill="white" stroke="white" cx="64" cy="-171" rx="27" ry="18.3848"/>
<text text-anchor="middle" x="64" y="-167.4" font-family="Times Roman,serif" font-size="14.00">a2</text>
</g>
<!-- a1&#45;&gt;a2 -->
<g id="edge4" class="edge"><title>a1&#45;&gt;a2</title>
<path fill="none" stroke="black" d="M64.7477,-226.327C64.6387,-218.264 64.5088,-208.648 64.388,-199.711"/>
<polygon fill="black" stroke="black" points="67.8872,-199.619 64.2523,-189.667 60.8878,-199.714 67.8872,-199.619"/>
</g>
<!-- b3 -->
<g id="node12" class="node"><title>b3</title>
<ellipse fill="lightgrey" stroke="black" cx="151" cy="-97" rx="27" ry="18.3848"/>
<text text-anchor="middle" x="151" y="-93.4" font-family="Times Roman,serif" font-size="14.00">b3</text>
</g>
<!-- a1&#45;&gt;b3 -->
<g id="edge16" class="edge"><title>a1&#45;&gt;b3</title>
<path fill="none" stroke="black" d="M76.3263,-227.839C83.326,-217.08 92.3938,-202.859 100,-190 113.073,-167.9 127.036,-142.283 137.04,-123.538"/>
<polygon fill="black" stroke="black" points="140.148,-125.148 141.749,-114.675 133.966,-121.864 140.148,-125.148"/>
</g>
<!-- a3 -->
<g id="node6" class="node"><title>a3</title>
<ellipse fill="white" stroke="white" cx="65" cy="-97" rx="27" ry="18.3848"/>
<text text-anchor="middle" x="65" y="-93.4" font-family="Times Roman,serif" font-size="14.00">a3</text>
</g>
<!-- a2&#45;&gt;a3 -->
<g id="edge5" class="edge"><title>a2&#45;&gt;a3</title>
<path fill="none" stroke="black" d="M64.2523,-152.327C64.3613,-144.264 64.4912,-134.648 64.612,-125.711"/>
<polygon fill="black" stroke="black" points="68.1122,-125.714 64.7477,-115.667 61.1128,-125.619 68.1122,-125.714"/>
</g>
<!-- a3&#45;&gt;a0 -->
<g id="edge20" class="edge"><title>a3&#45;&gt;a0</title>
<path fill="none" stroke="black" d="M50.4867,-112.984C42.1311,-123.301 32.4325,-137.47 28,-152 13.475,-199.614 14.4538,-216.393 29,-264 32.3358,-274.918 38.5613,-285.701 44.9089,-294.787"/>
<polygon fill="black" stroke="black" points="42.176,-296.978 50.9418,-302.929 47.8001,-292.811 42.176,-296.978"/>
</g>
<!-- end -->
<g id="node20" class="node"><title>end</title>
<polygon fill="none" stroke="black" points="129,-42 87,-42 87,-2.13163e-14 129,-7.10543e-15 129,-42"/>
<polyline fill="none" stroke="black" points="99,-42 87,-30 "/>
<polyline fill="none" stroke="black" points="87,-12 99,-1.7256e-14 "/>
<polyline fill="none" stroke="black" points="117,-1.11657e-14 129,-12 "/>
<polyline fill="none" stroke="black" points="129,-30 117,-42 "/>
<text text-anchor="middle" x="108" y="-17.4" font-family="Times Roman,serif" font-size="14.00">end</text>
</g>
<!-- a3&#45;&gt;end -->
<g id="edge22" class="edge"><title>a3&#45;&gt;end</title>
<path fill="none" stroke="black" d="M74.9731,-79.373C79.7487,-70.9326 85.6014,-60.5883 91.0464,-50.9645"/>
<polygon fill="black" stroke="black" points="94.2153,-52.4711 96.0935,-42.0441 88.1228,-49.0241 94.2153,-52.4711"/>
</g>
<!-- b0 -->
<g id="node8" class="node"><title>b0</title>
<ellipse fill="lightgrey" stroke="black" cx="162" cy="-319" rx="27" ry="18.3848"/>
<text text-anchor="middle" x="162" y="-315.4" font-family="Times Roman,serif" font-size="14.00">b0</text>
</g>
<!-- b1 -->
<g id="node10" class="node"><title>b1</title>
<ellipse fill="lightgrey" stroke="black" cx="168" cy="-245" rx="27" ry="18.3848"/>
<text text-anchor="middle" x="168" y="-241.4" font-family="Times Roman,serif" font-size="14.00">b1</text>
</g>
<!-- b0&#45;&gt;b1 -->
<g id="edge8" class="edge"><title>b0&#45;&gt;b1</title>
<path fill="none" stroke="black" d="M163.514,-300.327C164.168,-292.264 164.947,-282.648 165.672,-273.711"/>
<polygon fill="black" stroke="black" points="169.167,-273.918 166.486,-263.667 162.19,-273.352 169.167,-273.918"/>
</g>
<!-- b2 -->
<g id="node11" class="node"><title>b2</title>
<ellipse fill="lightgrey" stroke="black" cx="174" cy="-171" rx="27" ry="18.3848"/>
<text text-anchor="middle" x="174" y="-167.4" font-family="Times Roman,serif" font-size="14.00">b2</text>
</g>
<!-- b1&#45;&gt;b2 -->
<g id="edge9" class="edge"><title>b1&#45;&gt;b2</title>
<path fill="none" stroke="black" d="M169.514,-226.327C170.168,-218.264 170.947,-208.648 171.672,-199.711"/>
<polygon fill="black" stroke="black" points="175.167,-199.918 172.486,-189.667 168.19,-199.352 175.167,-199.918"/>
</g>
<!-- b2&#45;&gt;a3 -->
<g id="edge18" class="edge"><title>b2&#45;&gt;a3</title>
<path fill="none" stroke="black" d="M154.764,-157.941C137.592,-146.283 112.235,-129.068 92.8473,-115.906"/>
<polygon fill="black" stroke="black" points="94.6499,-112.899 84.4104,-110.178 90.718,-118.69 94.6499,-112.899"/>
</g>
<!-- b2&#45;&gt;b3 -->
<g id="edge10" class="edge"><title>b2&#45;&gt;b3</title>
<path fill="none" stroke="black" d="M168.315,-152.708C165.716,-144.347 162.58,-134.257 159.695,-124.974"/>
<polygon fill="black" stroke="black" points="163.01,-123.849 156.7,-115.338 156.326,-125.926 163.01,-123.849"/>
</g>
<!-- b3&#45;&gt;end -->
<g id="edge24" class="edge"><title>b3&#45;&gt;end</title>
<path fill="none" stroke="black" d="M141.027,-79.373C136.251,-70.9326 130.399,-60.5883 124.954,-50.9645"/>
<polygon fill="black" stroke="black" points="127.877,-49.0241 119.907,-42.0441 121.785,-52.4711 127.877,-49.0241"/>
</g>
<!-- start -->
<g id="node13" class="node"><title>start</title>
<polygon fill="none" stroke="black" points="113,-432 63,-406 113,-380 163,-406 113,-432"/>
<polyline fill="none" stroke="black" points="73.6466,-411.536 73.6466,-400.464 "/>
<polyline fill="none" stroke="black" points="102.353,-385.536 123.647,-385.536 "/>
<polyline fill="none" stroke="black" points="152.353,-400.464 152.353,-411.536 "/>
<polyline fill="none" stroke="black" points="123.647,-426.464 102.353,-426.464 "/>
<text text-anchor="middle" x="113" y="-402.4" font-family="Times Roman,serif" font-size="14.00">start</text>
</g>
<!-- start&#45;&gt;a0 -->
<g id="edge12" class="edge"><title>start&#45;&gt;a0</title>
<path fill="none" stroke="black" d="M101.625,-385.382C95.0214,-373.414 86.6356,-358.214 79.5549,-345.381"/>
<polygon fill="black" stroke="black" points="82.5692,-343.599 74.6738,-336.534 76.4401,-346.98 82.5692,-343.599"/>
</g>
<!-- start&#45;&gt;b0 -->
<g id="edge14" class="edge"><title>start&#45;&gt;b0</title>
<path fill="none" stroke="black" d="M124.365,-385.822C131.144,-373.785 139.829,-358.365 147.147,-345.372"/>
<polygon fill="black" stroke="black" points="150.329,-346.853 152.187,-336.423 144.23,-343.418 150.329,-346.853"/>
</g>
</g>
</svg>
