<?xml version="1.0" encoding="UTF-8" standalone="no"?>
<!DOCTYPE svg PUBLIC "-//W3C//DTD SVG 1.1//EN"
 "http://www.w3.org/Graphics/SVG/1.1/DTD/svg11.dtd">
<!-- Generated by graphviz version 2.26.3 (20100126.1600)
 -->
<!-- Title: g Pages: 1 -->
<svg width="1284pt" height="562pt"
 viewBox="0.00 0.00 1284.00 562.00" xmlns="http://www.w3.org/2000/svg" xmlns:xlink="http://www.w3.org/1999/xlink">
<g id="graph1" class="graph" transform="scale(1 1) rotate(0) translate(4 558)">
<title>g</title>
<polygon fill="white" stroke="white" points="-4,5 -4,-558 1281,-558 1281,5 -4,5"/>
<!-- state0 -->
<g id="node1" class="node"><title>state0</title>
<polygon fill="white" stroke="white" stroke-width="5" points="12.5,-75.5 203.5,-75.5 215.5,-87.5 215.5,-228.5 203.5,-240.5 12.5,-240.5 0.5,-228.5 0.5,-87.5 12.5,-75.5"/>
<path fill="white" stroke="white" stroke-width="5" d="M203.5,-75.5C209.5,-75.5 215.5,-81.5 215.5,-87.5"/>
<path fill="white" stroke="white" stroke-width="5" d="M215.5,-228.5C215.5,-234.5 209.5,-240.5 203.5,-240.5"/>
<path fill="white" stroke="white" stroke-width="5" d="M12.5,-240.5C6.5,-240.5 0.5,-234.5 0.5,-228.5"/>
<path fill="white" stroke="white" stroke-width="5" d="M0.5,-87.5C0.5,-81.5 6.5,-75.5 12.5,-75.5"/>
<polyline fill="none" stroke="black" stroke-width="5" points="12.5,-75.5 203.5,-75.5 "/>
<path fill="none" stroke="black" stroke-width="5" d="M203.5,-75.5C209.5,-75.5 215.5,-81.5 215.5,-87.5"/>
<polyline fill="none" stroke="black" stroke-width="5" points="215.5,-87.5 215.5,-228.5 "/>
<path fill="none" stroke="black" stroke-width="5" d="M215.5,-228.5C215.5,-234.5 209.5,-240.5 203.5,-240.5"/>
<polyline fill="none" stroke="black" stroke-width="5" points="203.5,-240.5 12.5,-240.5 "/>
<path fill="none" stroke="black" stroke-width="5" d="M12.5,-240.5C6.5,-240.5 0.5,-234.5 0.5,-228.5"/>
<polyline fill="none" stroke="black" stroke-width="5" points="0.5,-228.5 0.5,-87.5 "/>
<path fill="none" stroke="black" stroke-width="5" d="M0.5,-87.5C0.5,-81.5 6.5,-75.5 12.5,-75.5"/>
<polygon fill="white" stroke="white" points="8.5,-79.5 8.5,-236.5 207.5,-236.5 207.5,-79.5 8.5,-79.5"/>
<polygon fill="black" stroke="black" points="11,-213 11,-234 206,-234 206,-213 11,-213"/>
<text text-anchor="start" x="75" y="-220.233" font-family="Courier New" font-size="14.00" fill="white">State #0</text>
<text text-anchor="start" x="14" y="-197.733" font-family="Courier New" font-size="14.00">(0) s &#45;&gt; •e $ </text>
<text text-anchor="start" x="14" y="-175.733" font-family="Courier New" font-size="14.00">(1) e &#45;&gt; •l &#39;=&#39; r </text>
<text text-anchor="start" x="14" y="-153.733" font-family="Courier New" font-size="14.00">(2) e &#45;&gt; •r </text>
<text text-anchor="start" x="14" y="-131.733" font-family="Courier New" font-size="14.00">(3) l &#45;&gt; •&#39;*&#39; r </text>
<text text-anchor="start" x="14" y="-109.733" font-family="Courier New" font-size="14.00">(4) l &#45;&gt; •&#39;n&#39; </text>
<text text-anchor="start" x="14" y="-87.7333" font-family="Courier New" font-size="14.00">(5) r &#45;&gt; •l </text>
</g>
<!-- state1 -->
<g id="node2" class="node"><title>state1</title>
<polygon fill="white" stroke="white" points="828.5,-252.5 1003.5,-252.5 1015.5,-264.5 1015.5,-361.5 1003.5,-373.5 828.5,-373.5 816.5,-361.5 816.5,-264.5 828.5,-252.5"/>
<path fill="white" stroke="white" d="M1003.5,-252.5C1009.5,-252.5 1015.5,-258.5 1015.5,-264.5"/>
<path fill="white" stroke="white" d="M1015.5,-361.5C1015.5,-367.5 1009.5,-373.5 1003.5,-373.5"/>
<path fill="white" stroke="white" d="M828.5,-373.5C822.5,-373.5 816.5,-367.5 816.5,-361.5"/>
<path fill="white" stroke="white" d="M816.5,-264.5C816.5,-258.5 822.5,-252.5 828.5,-252.5"/>
<polyline fill="none" stroke="black" points="828.5,-252.5 1003.5,-252.5 "/>
<path fill="none" stroke="black" d="M1003.5,-252.5C1009.5,-252.5 1015.5,-258.5 1015.5,-264.5"/>
<polyline fill="none" stroke="black" points="1015.5,-264.5 1015.5,-361.5 "/>
<path fill="none" stroke="black" d="M1015.5,-361.5C1015.5,-367.5 1009.5,-373.5 1003.5,-373.5"/>
<polyline fill="none" stroke="black" points="1003.5,-373.5 828.5,-373.5 "/>
<path fill="none" stroke="black" d="M828.5,-373.5C822.5,-373.5 816.5,-367.5 816.5,-361.5"/>
<polyline fill="none" stroke="black" points="816.5,-361.5 816.5,-264.5 "/>
<path fill="none" stroke="black" d="M816.5,-264.5C816.5,-258.5 822.5,-252.5 828.5,-252.5"/>
<polygon fill="white" stroke="white" points="824.5,-256.5 824.5,-369.5 1007.5,-369.5 1007.5,-256.5 824.5,-256.5"/>
<polygon fill="black" stroke="black" points="827,-346 827,-367 1006,-367 1006,-346 827,-346"/>
<text text-anchor="start" x="883" y="-353.233" font-family="Courier New" font-size="14.00" fill="white">State #1</text>
<text text-anchor="start" x="830" y="-330.733" font-family="Courier New" font-size="14.00">(3) l &#45;&gt; •&#39;*&#39; r </text>
<text text-anchor="start" x="830" y="-308.733" font-family="Courier New" font-size="14.00">(3) l &#45;&gt; &#39;*&#39; •r </text>
<text text-anchor="start" x="830" y="-286.733" font-family="Courier New" font-size="14.00">(4) l &#45;&gt; •&#39;n&#39; </text>
<text text-anchor="start" x="830" y="-264.733" font-family="Courier New" font-size="14.00">(5) r &#45;&gt; •l </text>
</g>
<!-- state0&#45;&gt;state1 -->
<g id="edge8" class="edge"><title>state0&#45;&gt;state1</title>
<path fill="none" stroke="black" d="M215.791,-170.384C387.004,-190.311 707.047,-228.704 758,-243 774.179,-247.539 790.841,-253.443 807.001,-259.897"/>
<polygon fill="black" stroke="black" points="805.869,-263.215 816.45,-263.754 808.514,-256.734 805.869,-263.215"/>
<text text-anchor="middle" x="514" y="-212.4" font-family="Times Roman,serif" font-size="14.00" fill="#474747">&#39;*&#39;</text>
</g>
<!-- state2 -->
<g id="node3" class="node"><title>state2</title>
<polygon fill="white" stroke="white" points="1097,-188.5 1255,-188.5 1267,-200.5 1267,-231.5 1255,-243.5 1097,-243.5 1085,-231.5 1085,-200.5 1097,-188.5"/>
<path fill="white" stroke="white" d="M1255,-188.5C1261,-188.5 1267,-194.5 1267,-200.5"/>
<path fill="white" stroke="white" d="M1267,-231.5C1267,-237.5 1261,-243.5 1255,-243.5"/>
<path fill="white" stroke="white" d="M1097,-243.5C1091,-243.5 1085,-237.5 1085,-231.5"/>
<path fill="white" stroke="white" d="M1085,-200.5C1085,-194.5 1091,-188.5 1097,-188.5"/>
<polyline fill="none" stroke="black" points="1097,-188.5 1255,-188.5 "/>
<path fill="none" stroke="black" d="M1255,-188.5C1261,-188.5 1267,-194.5 1267,-200.5"/>
<polyline fill="none" stroke="black" points="1267,-200.5 1267,-231.5 "/>
<path fill="none" stroke="black" d="M1267,-231.5C1267,-237.5 1261,-243.5 1255,-243.5"/>
<polyline fill="none" stroke="black" points="1255,-243.5 1097,-243.5 "/>
<path fill="none" stroke="black" d="M1097,-243.5C1091,-243.5 1085,-237.5 1085,-231.5"/>
<polyline fill="none" stroke="black" points="1085,-231.5 1085,-200.5 "/>
<path fill="none" stroke="black" d="M1085,-200.5C1085,-194.5 1091,-188.5 1097,-188.5"/>
<polygon fill="white" stroke="white" points="1093,-192.5 1093,-239.5 1259,-239.5 1259,-192.5 1093,-192.5"/>
<polygon fill="black" stroke="black" points="1095,-216 1095,-237 1257,-237 1257,-216 1095,-216"/>
<text text-anchor="start" x="1142.5" y="-223.233" font-family="Courier New" font-size="14.00" fill="white">State #2</text>
<text text-anchor="start" x="1098" y="-200.733" font-family="Courier New" font-size="14.00">(4) l &#45;&gt; &#39;n&#39; •</text>
<polygon fill="grey" stroke="grey" points="1220,-194 1220,-214 1257,-214 1257,-194 1220,-194"/>
<text text-anchor="start" x="1237" y="-200.733" font-family="Courier New" font-size="14.00">=$</text>
</g>
<!-- state0&#45;&gt;state2 -->
<g id="edge10" class="edge"><title>state0&#45;&gt;state2</title>
<path fill="none" stroke="black" d="M215.735,-158C265.176,-158 324.562,-158 378,-158 378,-158 378,-158 916,-158 973.341,-158 1036.13,-171.604 1085.63,-185.636"/>
<polygon fill="black" stroke="black" points="1084.77,-189.03 1095.35,-188.444 1086.71,-182.305 1084.77,-189.03"/>
<text text-anchor="middle" x="650" y="-163.4" font-family="Times Roman,serif" font-size="14.00" fill="#474747">&#39;n&#39;</text>
</g>
<!-- state5 -->
<g id="node6" class="node"><title>state5</title>
<polygon fill="black" stroke="black" points="299,-74.5 457,-74.5 469,-86.5 469,-117.5 457,-129.5 299,-129.5 287,-117.5 287,-86.5 299,-74.5"/>
<path fill="black" stroke="black" d="M457,-74.5C463,-74.5 469,-80.5 469,-86.5"/>
<path fill="black" stroke="black" d="M469,-117.5C469,-123.5 463,-129.5 457,-129.5"/>
<path fill="black" stroke="black" d="M299,-129.5C293,-129.5 287,-123.5 287,-117.5"/>
<path fill="black" stroke="black" d="M287,-86.5C287,-80.5 293,-74.5 299,-74.5"/>
<polyline fill="none" stroke="black" points="299,-74.5 457,-74.5 "/>
<path fill="none" stroke="black" d="M457,-74.5C463,-74.5 469,-80.5 469,-86.5"/>
<polyline fill="none" stroke="black" points="469,-86.5 469,-117.5 "/>
<path fill="none" stroke="black" d="M469,-117.5C469,-123.5 463,-129.5 457,-129.5"/>
<polyline fill="none" stroke="black" points="457,-129.5 299,-129.5 "/>
<path fill="none" stroke="black" d="M299,-129.5C293,-129.5 287,-123.5 287,-117.5"/>
<polyline fill="none" stroke="black" points="287,-117.5 287,-86.5 "/>
<path fill="none" stroke="black" d="M287,-86.5C287,-80.5 293,-74.5 299,-74.5"/>
<polygon fill="black" stroke="black" points="295,-78.5 295,-125.5 461,-125.5 461,-78.5 295,-78.5"/>
<polygon fill="black" stroke="black" points="297,-102 297,-123 459,-123 459,-102 297,-102"/>
<text text-anchor="start" x="344.5" y="-109.233" font-family="Courier New" font-size="14.00" fill="white">State #5</text>
<text text-anchor="start" x="300" y="-86.7333" font-family="Courier New" font-size="14.00" fill="white">(0) s &#45;&gt; e •$ </text>
</g>
<!-- state0&#45;&gt;state5 -->
<g id="edge2" class="edge"><title>state0&#45;&gt;state5</title>
<path fill="none" stroke="black" stroke-width="5" d="M215.6,-114.551C221.771,-112.83 227.933,-111.292 234,-110 247.73,-107.077 262.352,-105.051 276.817,-103.669"/>
<polygon fill="black" stroke="black" points="277.205,-108.027 286.794,-102.812 276.456,-99.3089 277.205,-108.027"/>
<text text-anchor="middle" x="243" y="-118.8" font-family="Times Roman,serif" font-size="28.00">e</text>
</g>
<!-- state6 -->
<g id="node7" class="node"><title>state6</title>
<polygon fill="white" stroke="white" points="282.5,-247.5 473.5,-247.5 485.5,-259.5 485.5,-312.5 473.5,-324.5 282.5,-324.5 270.5,-312.5 270.5,-259.5 282.5,-247.5"/>
<path fill="white" stroke="white" d="M473.5,-247.5C479.5,-247.5 485.5,-253.5 485.5,-259.5"/>
<path fill="white" stroke="white" d="M485.5,-312.5C485.5,-318.5 479.5,-324.5 473.5,-324.5"/>
<path fill="white" stroke="white" d="M282.5,-324.5C276.5,-324.5 270.5,-318.5 270.5,-312.5"/>
<path fill="white" stroke="white" d="M270.5,-259.5C270.5,-253.5 276.5,-247.5 282.5,-247.5"/>
<polyline fill="none" stroke="black" points="282.5,-247.5 473.5,-247.5 "/>
<path fill="none" stroke="black" d="M473.5,-247.5C479.5,-247.5 485.5,-253.5 485.5,-259.5"/>
<polyline fill="none" stroke="black" points="485.5,-259.5 485.5,-312.5 "/>
<path fill="none" stroke="black" d="M485.5,-312.5C485.5,-318.5 479.5,-324.5 473.5,-324.5"/>
<polyline fill="none" stroke="black" points="473.5,-324.5 282.5,-324.5 "/>
<path fill="none" stroke="black" d="M282.5,-324.5C276.5,-324.5 270.5,-318.5 270.5,-312.5"/>
<polyline fill="none" stroke="black" points="270.5,-312.5 270.5,-259.5 "/>
<path fill="none" stroke="black" d="M270.5,-259.5C270.5,-253.5 276.5,-247.5 282.5,-247.5"/>
<polygon fill="white" stroke="white" points="278.5,-251.5 278.5,-320.5 477.5,-320.5 477.5,-251.5 278.5,-251.5"/>
<polygon fill="black" stroke="black" points="281,-297 281,-318 476,-318 476,-297 281,-297"/>
<text text-anchor="start" x="345" y="-304.233" font-family="Courier New" font-size="14.00" fill="white">State #6</text>
<text text-anchor="start" x="284" y="-281.733" font-family="Courier New" font-size="14.00">(1) e &#45;&gt; l •&#39;=&#39; r </text>
<text text-anchor="start" x="284" y="-259.733" font-family="Courier New" font-size="14.00">(5) r &#45;&gt; l •</text>
<polygon fill="grey" stroke="grey" points="439,-253 439,-273 476,-273 476,-253 439,-253"/>
<text text-anchor="start" x="464" y="-259.733" font-family="Courier New" font-size="14.00">$</text>
</g>
<!-- state0&#45;&gt;state6 -->
<g id="edge4" class="edge"><title>state0&#45;&gt;state6</title>
<path fill="none" stroke="black" stroke-width="5" d="M215.562,-209.248C221.799,-212.211 227.98,-215.145 234,-218 251.125,-226.121 269.403,-234.768 286.99,-243.078"/>
<polygon fill="black" stroke="black" points="285.204,-247.072 296.115,-247.388 288.941,-239.161 285.204,-247.072"/>
<text text-anchor="middle" x="243" y="-233.8" font-family="Times Roman,serif" font-size="28.00">l</text>
</g>
<!-- state9 -->
<g id="node10" class="node"><title>state9</title>
<polygon fill="white" stroke="white" points="307,-0.5 449,-0.5 461,-12.5 461,-43.5 449,-55.5 307,-55.5 295,-43.5 295,-12.5 307,-0.5"/>
<path fill="white" stroke="white" d="M449,-0.5C455,-0.5 461,-6.5 461,-12.5"/>
<path fill="white" stroke="white" d="M461,-43.5C461,-49.5 455,-55.5 449,-55.5"/>
<path fill="white" stroke="white" d="M307,-55.5C301,-55.5 295,-49.5 295,-43.5"/>
<path fill="white" stroke="white" d="M295,-12.5C295,-6.5 301,-0.5 307,-0.5"/>
<polyline fill="none" stroke="black" points="307,-0.5 449,-0.5 "/>
<path fill="none" stroke="black" d="M449,-0.5C455,-0.5 461,-6.5 461,-12.5"/>
<polyline fill="none" stroke="black" points="461,-12.5 461,-43.5 "/>
<path fill="none" stroke="black" d="M461,-43.5C461,-49.5 455,-55.5 449,-55.5"/>
<polyline fill="none" stroke="black" points="449,-55.5 307,-55.5 "/>
<path fill="none" stroke="black" d="M307,-55.5C301,-55.5 295,-49.5 295,-43.5"/>
<polyline fill="none" stroke="black" points="295,-43.5 295,-12.5 "/>
<path fill="none" stroke="black" d="M295,-12.5C295,-6.5 301,-0.5 307,-0.5"/>
<polygon fill="white" stroke="white" points="303,-4.5 303,-51.5 453,-51.5 453,-4.5 303,-4.5"/>
<polygon fill="black" stroke="black" points="305,-28 305,-49 451,-49 451,-28 305,-28"/>
<text text-anchor="start" x="344.5" y="-35.2333" font-family="Courier New" font-size="14.00" fill="white">State #9</text>
<text text-anchor="start" x="308" y="-12.7333" font-family="Courier New" font-size="14.00">(2) e &#45;&gt; r •</text>
<polygon fill="grey" stroke="grey" points="414,-6 414,-26 451,-26 451,-6 414,-6"/>
<text text-anchor="start" x="439" y="-12.7333" font-family="Courier New" font-size="14.00">$</text>
</g>
<!-- state0&#45;&gt;state9 -->
<g id="edge6" class="edge"><title>state0&#45;&gt;state9</title>
<path fill="none" stroke="black" stroke-width="5" d="M215.575,-79.5944C221.7,-76.1663 227.864,-72.9394 234,-70 250.051,-62.311 267.795,-55.7341 285.184,-50.2234"/>
<polygon fill="black" stroke="black" points="286.521,-54.3897 294.795,-47.2713 283.952,-46.0254 286.521,-54.3897"/>
<text text-anchor="middle" x="243" y="-78.8" font-family="Times Roman,serif" font-size="28.00">r</text>
</g>
<!-- state1&#45;&gt;state1 -->
<g id="edge12" class="edge"><title>state1&#45;&gt;state1</title>
<path fill="none" stroke="black" d="M892.702,-373.614C895.73,-384.439 903.496,-392 916,-392 924.401,-392 930.663,-388.587 934.787,-383.063"/>
<polygon fill="black" stroke="black" points="938.149,-384.146 939.298,-373.614 931.832,-381.13 938.149,-384.146"/>
<text text-anchor="middle" x="916" y="-397.4" font-family="Times Roman,serif" font-size="14.00" fill="#474747">&#39;*&#39;</text>
</g>
<!-- state1&#45;&gt;state2 -->
<g id="edge16" class="edge"><title>state1&#45;&gt;state2</title>
<path fill="none" stroke="black" d="M1015.78,-275.775C1041.06,-266.342 1067.96,-256.306 1092.36,-247.205"/>
<polygon fill="black" stroke="black" points="1093.78,-250.409 1101.93,-243.634 1091.34,-243.85 1093.78,-250.409"/>
<text text-anchor="middle" x="1050" y="-269.4" font-family="Times Roman,serif" font-size="14.00" fill="#474747">&#39;n&#39;</text>
</g>
<!-- state3 -->
<g id="node4" class="node"><title>state3</title>
<polygon fill="white" stroke="white" points="1105,-364.5 1247,-364.5 1259,-376.5 1259,-407.5 1247,-419.5 1105,-419.5 1093,-407.5 1093,-376.5 1105,-364.5"/>
<path fill="white" stroke="white" d="M1247,-364.5C1253,-364.5 1259,-370.5 1259,-376.5"/>
<path fill="white" stroke="white" d="M1259,-407.5C1259,-413.5 1253,-419.5 1247,-419.5"/>
<path fill="white" stroke="white" d="M1105,-419.5C1099,-419.5 1093,-413.5 1093,-407.5"/>
<path fill="white" stroke="white" d="M1093,-376.5C1093,-370.5 1099,-364.5 1105,-364.5"/>
<polyline fill="none" stroke="black" points="1105,-364.5 1247,-364.5 "/>
<path fill="none" stroke="black" d="M1247,-364.5C1253,-364.5 1259,-370.5 1259,-376.5"/>
<polyline fill="none" stroke="black" points="1259,-376.5 1259,-407.5 "/>
<path fill="none" stroke="black" d="M1259,-407.5C1259,-413.5 1253,-419.5 1247,-419.5"/>
<polyline fill="none" stroke="black" points="1247,-419.5 1105,-419.5 "/>
<path fill="none" stroke="black" d="M1105,-419.5C1099,-419.5 1093,-413.5 1093,-407.5"/>
<polyline fill="none" stroke="black" points="1093,-407.5 1093,-376.5 "/>
<path fill="none" stroke="black" d="M1093,-376.5C1093,-370.5 1099,-364.5 1105,-364.5"/>
<polygon fill="white" stroke="white" points="1101,-368.5 1101,-415.5 1251,-415.5 1251,-368.5 1101,-368.5"/>
<polygon fill="black" stroke="black" points="1103,-392 1103,-413 1249,-413 1249,-392 1103,-392"/>
<text text-anchor="start" x="1142.5" y="-399.233" font-family="Courier New" font-size="14.00" fill="white">State #3</text>
<text text-anchor="start" x="1106" y="-376.733" font-family="Courier New" font-size="14.00">(5) r &#45;&gt; l •</text>
<polygon fill="grey" stroke="grey" points="1212,-370 1212,-390 1249,-390 1249,-370 1212,-370"/>
<text text-anchor="start" x="1229" y="-376.733" font-family="Courier New" font-size="14.00">=$</text>
</g>
<!-- state1&#45;&gt;state3 -->
<g id="edge18" class="edge"><title>state1&#45;&gt;state3</title>
<path fill="none" stroke="black" stroke-width="5" d="M1015.78,-343.318C1037.98,-350.064 1061.43,-357.19 1083.34,-363.845"/>
<polygon fill="black" stroke="black" points="1082.11,-368.045 1092.95,-366.766 1084.66,-359.673 1082.11,-368.045"/>
<text text-anchor="middle" x="1050" y="-362.8" font-family="Times Roman,serif" font-size="28.00">l</text>
</g>
<!-- state4 -->
<g id="node5" class="node"><title>state4</title>
<polygon fill="white" stroke="white" points="1088.5,-285.5 1263.5,-285.5 1275.5,-297.5 1275.5,-328.5 1263.5,-340.5 1088.5,-340.5 1076.5,-328.5 1076.5,-297.5 1088.5,-285.5"/>
<path fill="white" stroke="white" d="M1263.5,-285.5C1269.5,-285.5 1275.5,-291.5 1275.5,-297.5"/>
<path fill="white" stroke="white" d="M1275.5,-328.5C1275.5,-334.5 1269.5,-340.5 1263.5,-340.5"/>
<path fill="white" stroke="white" d="M1088.5,-340.5C1082.5,-340.5 1076.5,-334.5 1076.5,-328.5"/>
<path fill="white" stroke="white" d="M1076.5,-297.5C1076.5,-291.5 1082.5,-285.5 1088.5,-285.5"/>
<polyline fill="none" stroke="black" points="1088.5,-285.5 1263.5,-285.5 "/>
<path fill="none" stroke="black" d="M1263.5,-285.5C1269.5,-285.5 1275.5,-291.5 1275.5,-297.5"/>
<polyline fill="none" stroke="black" points="1275.5,-297.5 1275.5,-328.5 "/>
<path fill="none" stroke="black" d="M1275.5,-328.5C1275.5,-334.5 1269.5,-340.5 1263.5,-340.5"/>
<polyline fill="none" stroke="black" points="1263.5,-340.5 1088.5,-340.5 "/>
<path fill="none" stroke="black" d="M1088.5,-340.5C1082.5,-340.5 1076.5,-334.5 1076.5,-328.5"/>
<polyline fill="none" stroke="black" points="1076.5,-328.5 1076.5,-297.5 "/>
<path fill="none" stroke="black" d="M1076.5,-297.5C1076.5,-291.5 1082.5,-285.5 1088.5,-285.5"/>
<polygon fill="white" stroke="white" points="1084.5,-289.5 1084.5,-336.5 1267.5,-336.5 1267.5,-289.5 1084.5,-289.5"/>
<polygon fill="black" stroke="black" points="1087,-313 1087,-334 1266,-334 1266,-313 1087,-313"/>
<text text-anchor="start" x="1143" y="-320.233" font-family="Courier New" font-size="14.00" fill="white">State #4</text>
<text text-anchor="start" x="1090" y="-297.733" font-family="Courier New" font-size="14.00">(3) l &#45;&gt; &#39;*&#39; r •</text>
<polygon fill="grey" stroke="grey" points="1229,-291 1229,-311 1266,-311 1266,-291 1229,-291"/>
<text text-anchor="start" x="1246" y="-297.733" font-family="Courier New" font-size="14.00">=$</text>
</g>
<!-- state1&#45;&gt;state4 -->
<g id="edge14" class="edge"><title>state1&#45;&gt;state4</title>
<path fill="none" stroke="black" stroke-width="5" d="M1015.78,-313C1032.26,-313 1049.43,-313 1066.15,-313"/>
<polygon fill="black" stroke="black" points="1066.49,-317.375 1076.49,-313 1066.49,-308.625 1066.49,-317.375"/>
<text text-anchor="middle" x="1050" y="-321.8" font-family="Times Roman,serif" font-size="28.00">r</text>
</g>
<!-- state7 -->
<g id="node8" class="node"><title>state7</title>
<polygon fill="white" stroke="white" points="554.5,-252.5 745.5,-252.5 757.5,-264.5 757.5,-361.5 745.5,-373.5 554.5,-373.5 542.5,-361.5 542.5,-264.5 554.5,-252.5"/>
<path fill="white" stroke="white" d="M745.5,-252.5C751.5,-252.5 757.5,-258.5 757.5,-264.5"/>
<path fill="white" stroke="white" d="M757.5,-361.5C757.5,-367.5 751.5,-373.5 745.5,-373.5"/>
<path fill="white" stroke="white" d="M554.5,-373.5C548.5,-373.5 542.5,-367.5 542.5,-361.5"/>
<path fill="white" stroke="white" d="M542.5,-264.5C542.5,-258.5 548.5,-252.5 554.5,-252.5"/>
<polyline fill="none" stroke="black" points="554.5,-252.5 745.5,-252.5 "/>
<path fill="none" stroke="black" d="M745.5,-252.5C751.5,-252.5 757.5,-258.5 757.5,-264.5"/>
<polyline fill="none" stroke="black" points="757.5,-264.5 757.5,-361.5 "/>
<path fill="none" stroke="black" d="M757.5,-361.5C757.5,-367.5 751.5,-373.5 745.5,-373.5"/>
<polyline fill="none" stroke="black" points="745.5,-373.5 554.5,-373.5 "/>
<path fill="none" stroke="black" d="M554.5,-373.5C548.5,-373.5 542.5,-367.5 542.5,-361.5"/>
<polyline fill="none" stroke="black" points="542.5,-361.5 542.5,-264.5 "/>
<path fill="none" stroke="black" d="M542.5,-264.5C542.5,-258.5 548.5,-252.5 554.5,-252.5"/>
<polygon fill="white" stroke="white" points="550.5,-256.5 550.5,-369.5 749.5,-369.5 749.5,-256.5 550.5,-256.5"/>
<polygon fill="black" stroke="black" points="553,-346 553,-367 748,-367 748,-346 553,-346"/>
<text text-anchor="start" x="617" y="-353.233" font-family="Courier New" font-size="14.00" fill="white">State #7</text>
<text text-anchor="start" x="556" y="-330.733" font-family="Courier New" font-size="14.00">(1) e &#45;&gt; l &#39;=&#39; •r </text>
<text text-anchor="start" x="556" y="-308.733" font-family="Courier New" font-size="14.00">(3) l &#45;&gt; •&#39;*&#39; r </text>
<text text-anchor="start" x="556" y="-286.733" font-family="Courier New" font-size="14.00">(4) l &#45;&gt; •&#39;n&#39; </text>
<text text-anchor="start" x="556" y="-264.733" font-family="Courier New" font-size="14.00">(5) r &#45;&gt; •l </text>
</g>
<!-- state6&#45;&gt;state7 -->
<g id="edge20" class="edge"><title>state6&#45;&gt;state7</title>
<path fill="none" stroke="black" d="M485.502,-296.671C500.85,-298.195 516.705,-299.769 532.237,-301.31"/>
<polygon fill="black" stroke="black" points="532.092,-304.813 542.389,-302.318 532.783,-297.847 532.092,-304.813"/>
<text text-anchor="middle" x="514" y="-305.4" font-family="Times Roman,serif" font-size="14.00" fill="#474747">&#39;=&#39;</text>
</g>
<!-- state7&#45;&gt;state1 -->
<g id="edge24" class="edge"><title>state7&#45;&gt;state1</title>
<path fill="none" stroke="black" d="M757.809,-313C773.639,-313 789.963,-313 805.84,-313"/>
<polygon fill="black" stroke="black" points="806.199,-316.5 816.199,-313 806.199,-309.5 806.199,-316.5"/>
<text text-anchor="middle" x="783" y="-318.4" font-family="Times Roman,serif" font-size="14.00" fill="#474747">&#39;*&#39;</text>
</g>
<!-- state7&#45;&gt;state2 -->
<g id="edge26" class="edge"><title>state7&#45;&gt;state2</title>
<path fill="none" stroke="black" d="M741.615,-252.304C762.62,-241.182 785.433,-231.156 808,-225 895.592,-201.106 999.299,-200.96 1074.26,-205.563"/>
<polygon fill="black" stroke="black" points="1074.43,-209.082 1084.64,-206.242 1074.89,-202.097 1074.43,-209.082"/>
<text text-anchor="middle" x="916" y="-230.4" font-family="Times Roman,serif" font-size="14.00" fill="#474747">&#39;n&#39;</text>
</g>
<!-- state7&#45;&gt;state3 -->
<g id="edge28" class="edge"><title>state7&#45;&gt;state3</title>
<path fill="none" stroke="black" stroke-width="5" d="M720.875,-373.52C746.619,-391.831 777.032,-409.574 808,-419 898.616,-446.581 1007.32,-433.294 1082.99,-417.147"/>
<polygon fill="black" stroke="black" points="1084.15,-421.373 1092.98,-414.959 1082.27,-412.826 1084.15,-421.373"/>
<text text-anchor="middle" x="916" y="-442.8" font-family="Times Roman,serif" font-size="28.00">l</text>
</g>
<!-- state8 -->
<g id="node9" class="node"><title>state8</title>
<polygon fill="white" stroke="white" points="820.5,-498.5 1011.5,-498.5 1023.5,-510.5 1023.5,-541.5 1011.5,-553.5 820.5,-553.5 808.5,-541.5 808.5,-510.5 820.5,-498.5"/>
<path fill="white" stroke="white" d="M1011.5,-498.5C1017.5,-498.5 1023.5,-504.5 1023.5,-510.5"/>
<path fill="white" stroke="white" d="M1023.5,-541.5C1023.5,-547.5 1017.5,-553.5 1011.5,-553.5"/>
<path fill="white" stroke="white" d="M820.5,-553.5C814.5,-553.5 808.5,-547.5 808.5,-541.5"/>
<path fill="white" stroke="white" d="M808.5,-510.5C808.5,-504.5 814.5,-498.5 820.5,-498.5"/>
<polyline fill="none" stroke="black" points="820.5,-498.5 1011.5,-498.5 "/>
<path fill="none" stroke="black" d="M1011.5,-498.5C1017.5,-498.5 1023.5,-504.5 1023.5,-510.5"/>
<polyline fill="none" stroke="black" points="1023.5,-510.5 1023.5,-541.5 "/>
<path fill="none" stroke="black" d="M1023.5,-541.5C1023.5,-547.5 1017.5,-553.5 1011.5,-553.5"/>
<polyline fill="none" stroke="black" points="1011.5,-553.5 820.5,-553.5 "/>
<path fill="none" stroke="black" d="M820.5,-553.5C814.5,-553.5 808.5,-547.5 808.5,-541.5"/>
<polyline fill="none" stroke="black" points="808.5,-541.5 808.5,-510.5 "/>
<path fill="none" stroke="black" d="M808.5,-510.5C808.5,-504.5 814.5,-498.5 820.5,-498.5"/>
<polygon fill="white" stroke="white" points="816.5,-502.5 816.5,-549.5 1015.5,-549.5 1015.5,-502.5 816.5,-502.5"/>
<polygon fill="black" stroke="black" points="819,-526 819,-547 1014,-547 1014,-526 819,-526"/>
<text text-anchor="start" x="883" y="-533.233" font-family="Courier New" font-size="14.00" fill="white">State #8</text>
<text text-anchor="start" x="822" y="-510.733" font-family="Courier New" font-size="14.00">(1) e &#45;&gt; l &#39;=&#39; r •</text>
<polygon fill="grey" stroke="grey" points="977,-504 977,-524 1014,-524 1014,-504 977,-504"/>
<text text-anchor="start" x="1002" y="-510.733" font-family="Courier New" font-size="14.00">$</text>
</g>
<!-- state7&#45;&gt;state8 -->
<g id="edge22" class="edge"><title>state7&#45;&gt;state8</title>
<path fill="none" stroke="black" stroke-width="5" d="M690.558,-373.729C718.972,-411.391 760.302,-457.495 808,-484 814.408,-487.561 821.179,-490.959 828.081,-494.168"/>
<polygon fill="black" stroke="black" points="826.637,-498.316 837.552,-498.425 830.225,-490.335 826.637,-498.316"/>
<text text-anchor="middle" x="783" y="-478.8" font-family="Times Roman,serif" font-size="28.00">r</text>
</g>
</g>
</svg>
