<?xml version="1.0" encoding="UTF-8" standalone="no"?>
<!DOCTYPE svg PUBLIC "-//W3C//DTD SVG 1.1//EN"
 "http://www.w3.org/Graphics/SVG/1.1/DTD/svg11.dtd">
<!-- Generated by graphviz version 2.26.3 (20100126.1600)
 -->
<!-- Title: G Pages: 1 -->
<svg width="134pt" height="194pt"
 viewBox="0.00 0.00 134.00 194.00" xmlns="http://www.w3.org/2000/svg" xmlns:xlink="http://www.w3.org/1999/xlink">
<g id="graph1" class="graph" transform="scale(1 1) rotate(0) translate(4 190)">
<title>G</title>
<polygon fill="white" stroke="white" points="-4,5 -4,-190 131,-190 131,5 -4,5"/>
<!-- a -->
<g id="node1" class="node"><title>a</title>
<ellipse fill="none" stroke="black" cx="27" cy="-167" rx="27" ry="18.3848"/>
<text text-anchor="middle" x="27" y="-163.4" font-family="Times Roman,serif" font-size="14.00">a</text>
</g>
<!-- b -->
<g id="node3" class="node"><title>b</title>
<ellipse fill="none" stroke="black" cx="27" cy="-93" rx="27" ry="18.3848"/>
<text text-anchor="middle" x="27" y="-89.4" font-family="Times Roman,serif" font-size="14.00">b</text>
</g>
<!-- a&#45;&gt;b -->
<g id="edge2" class="edge"><title>a&#45;&gt;b</title>
<path fill="none" stroke="black" d="M27,-148.327C27,-140.264 27,-130.648 27,-121.711"/>
<polygon fill="black" stroke="black" points="30.5001,-121.667 27,-111.667 23.5001,-121.667 30.5001,-121.667"/>
</g>
<!-- c -->
<g id="node5" class="node"><title>c</title>
<ellipse fill="none" stroke="black" cx="27" cy="-19" rx="27" ry="18.3848"/>
<text text-anchor="middle" x="27" y="-15.4" font-family="Times Roman,serif" font-size="14.00">c</text>
</g>
<!-- b&#45;&gt;c -->
<g id="edge4" class="edge"><title>b&#45;&gt;c</title>
<path fill="none" stroke="black" d="M27,-74.3267C27,-66.2639 27,-56.6477 27,-47.7115"/>
<polygon fill="black" stroke="black" points="30.5001,-47.6673 27,-37.6674 23.5001,-47.6674 30.5001,-47.6673"/>
</g>
<!-- d -->
<g id="node8" class="node"><title>d</title>
<ellipse fill="none" stroke="black" cx="99" cy="-93" rx="27" ry="18.3848"/>
<text text-anchor="middle" x="99" y="-89.4" font-family="Times Roman,serif" font-size="14.00">d</text>
</g>
<!-- b&#45;&gt;d -->
<g id="edge7" class="edge"><title>b&#45;&gt;d</title>
<path fill="none" stroke="black" d="M54,-93C56.6147,-93 59.2295,-93 61.8442,-93"/>
<polygon fill="black" stroke="black" points="61.9297,-96.5001 71.9297,-93 61.9297,-89.5001 61.9297,-96.5001"/>
</g>
<!-- e -->
<g id="node11" class="node"><title>e</title>
<ellipse fill="none" stroke="black" cx="99" cy="-19" rx="27" ry="18.3848"/>
<text text-anchor="middle" x="99" y="-15.4" font-family="Times Roman,serif" font-size="14.00">e</text>
</g>
<!-- c&#45;&gt;e -->
<g id="edge13" class="edge"><title>c&#45;&gt;e</title>
<path fill="none" stroke="black" d="M54,-19C56.6147,-19 59.2295,-19 61.8442,-19"/>
<polygon fill="black" stroke="black" points="61.9297,-22.5001 71.9297,-19 61.9297,-15.5001 61.9297,-22.5001"/>
</g>
<!-- d&#45;&gt;e -->
<g id="edge10" class="edge"><title>d&#45;&gt;e</title>
<path fill="none" stroke="black" d="M99,-74.3267C99,-66.2639 99,-56.6477 99,-47.7115"/>
<polygon fill="black" stroke="black" points="102.5,-47.6673 99,-37.6674 95.5001,-47.6674 102.5,-47.6673"/>
</g>
</g>
</svg>
