<?xml version="1.0" encoding="UTF-8" standalone="no"?>
<!DOCTYPE svg PUBLIC "-//W3C//DTD SVG 1.1//EN"
 "http://www.w3.org/Graphics/SVG/1.1/DTD/svg11.dtd">
<!-- Generated by graphviz version 2.26.3 (20100126.1600)
 -->
<!-- Title: g Pages: 1 -->
<svg width="375pt" height="228pt"
 viewBox="0.00 0.00 375.00 228.00" xmlns="http://www.w3.org/2000/svg" xmlns:xlink="http://www.w3.org/1999/xlink">
<g id="graph1" class="graph" transform="scale(1 1) rotate(0) translate(4 224)">
<title>g</title>
<polygon fill="white" stroke="white" points="-4,5 -4,-224 372,-224 372,5 -4,5"/>
<!-- node0 -->
<g id="node1" class="node"><title>node0</title>
<polygon fill="none" stroke="black" points="169,-193 169,-219 239,-219 239,-193 169,-193"/>
<text text-anchor="middle" x="179.5" y="-202.4" font-family="Times Roman,serif" font-size="14.00"> </text>
<polyline fill="none" stroke="black" points="190,-193 190,-219 "/>
<text text-anchor="middle" x="204" y="-202.4" font-family="Times Roman,serif" font-size="14.00">G</text>
<polyline fill="none" stroke="black" points="218,-193 218,-219 "/>
<text text-anchor="middle" x="228.5" y="-202.4" font-family="Times Roman,serif" font-size="14.00"> </text>
</g>
<!-- node1 -->
<g id="node2" class="node"><title>node1</title>
<polygon fill="none" stroke="black" points="104,-129 104,-155 172,-155 172,-129 104,-129"/>
<text text-anchor="middle" x="114.5" y="-138.4" font-family="Times Roman,serif" font-size="14.00"> </text>
<polyline fill="none" stroke="black" points="125,-129 125,-155 "/>
<text text-anchor="middle" x="138" y="-138.4" font-family="Times Roman,serif" font-size="14.00">E</text>
<polyline fill="none" stroke="black" points="151,-129 151,-155 "/>
<text text-anchor="middle" x="161.5" y="-138.4" font-family="Times Roman,serif" font-size="14.00"> </text>
</g>
<!-- node0&#45;&gt;node1 -->
<g id="edge4" class="edge"><title>node0:f0&#45;&gt;node1:f1</title>
<path fill="none" stroke="black" d="M179,-193C179,-172.231 150.35,-176.993 140.949,-164.601"/>
<polygon fill="black" stroke="black" points="144.282,-163.532 138,-155 137.59,-165.587 144.282,-163.532"/>
</g>
<!-- node4 -->
<g id="node5" class="node"><title>node4</title>
<polygon fill="none" stroke="black" points="237,-129 237,-155 305,-155 305,-129 237,-129"/>
<text text-anchor="middle" x="247.5" y="-138.4" font-family="Times Roman,serif" font-size="14.00"> </text>
<polyline fill="none" stroke="black" points="258,-129 258,-155 "/>
<text text-anchor="middle" x="271" y="-138.4" font-family="Times Roman,serif" font-size="14.00">R</text>
<polyline fill="none" stroke="black" points="284,-129 284,-155 "/>
<text text-anchor="middle" x="294.5" y="-138.4" font-family="Times Roman,serif" font-size="14.00"> </text>
</g>
<!-- node0&#45;&gt;node4 -->
<g id="edge2" class="edge"><title>node0:f2&#45;&gt;node4:f1</title>
<path fill="none" stroke="black" d="M229,-193C229,-171.957 258.349,-177.132 267.979,-164.692"/>
<polygon fill="black" stroke="black" points="271.366,-165.589 271,-155 264.683,-163.506 271.366,-165.589"/>
</g>
<!-- node2 -->
<g id="node3" class="node"><title>node2</title>
<polygon fill="none" stroke="black" points="43,-65 43,-91 111,-91 111,-65 43,-65"/>
<text text-anchor="middle" x="53.5" y="-74.4" font-family="Times Roman,serif" font-size="14.00"> </text>
<polyline fill="none" stroke="black" points="64,-65 64,-91 "/>
<text text-anchor="middle" x="77" y="-74.4" font-family="Times Roman,serif" font-size="14.00">B</text>
<polyline fill="none" stroke="black" points="90,-65 90,-91 "/>
<text text-anchor="middle" x="100.5" y="-74.4" font-family="Times Roman,serif" font-size="14.00"> </text>
</g>
<!-- node1&#45;&gt;node2 -->
<g id="edge6" class="edge"><title>node1:f0&#45;&gt;node2:f1</title>
<path fill="none" stroke="black" d="M114,-129C114,-109.479 88.6257,-112.395 79.9033,-100.587"/>
<polygon fill="black" stroke="black" points="83.2482,-99.5563 77,-91 76.5486,-101.585 83.2482,-99.5563"/>
</g>
<!-- node3 -->
<g id="node4" class="node"><title>node3</title>
<polygon fill="none" stroke="black" points="128.5,-65 128.5,-91 195.5,-91 195.5,-65 128.5,-65"/>
<text text-anchor="middle" x="139" y="-74.4" font-family="Times Roman,serif" font-size="14.00"> </text>
<polyline fill="none" stroke="black" points="149.5,-65 149.5,-91 "/>
<text text-anchor="middle" x="162" y="-74.4" font-family="Times Roman,serif" font-size="14.00">F</text>
<polyline fill="none" stroke="black" points="174.5,-65 174.5,-91 "/>
<text text-anchor="middle" x="185" y="-74.4" font-family="Times Roman,serif" font-size="14.00"> </text>
</g>
<!-- node1&#45;&gt;node3 -->
<g id="edge8" class="edge"><title>node1:f2&#45;&gt;node3:f1</title>
<path fill="none" stroke="black" d="M162,-129C162,-116.069 162,-110.564 162,-101.114"/>
<polygon fill="black" stroke="black" points="165.5,-101 162,-91 158.5,-101 165.5,-101"/>
</g>
<!-- node7 -->
<g id="node8" class="node"><title>node7</title>
<polygon fill="none" stroke="black" points="0,-1 0,-27 68,-27 68,-1 0,-1"/>
<text text-anchor="middle" x="10.5" y="-10.4" font-family="Times Roman,serif" font-size="14.00"> </text>
<polyline fill="none" stroke="black" points="21,-1 21,-27 "/>
<text text-anchor="middle" x="34" y="-10.4" font-family="Times Roman,serif" font-size="14.00">A</text>
<polyline fill="none" stroke="black" points="47,-1 47,-27 "/>
<text text-anchor="middle" x="57.5" y="-10.4" font-family="Times Roman,serif" font-size="14.00"> </text>
</g>
<!-- node2&#45;&gt;node7 -->
<g id="edge12" class="edge"><title>node2:f0&#45;&gt;node7:f1</title>
<path fill="none" stroke="black" d="M53,-65C53,-50.1006 41.1702,-46.8113 36.1795,-36.8099"/>
<polygon fill="black" stroke="black" points="39.5856,-36.0028 34,-27 32.7523,-37.5211 39.5856,-36.0028"/>
</g>
<!-- node8 -->
<g id="node9" class="node"><title>node8</title>
<polygon fill="none" stroke="black" points="86,-1 86,-27 154,-27 154,-1 86,-1"/>
<text text-anchor="middle" x="96.5" y="-10.4" font-family="Times Roman,serif" font-size="14.00"> </text>
<polyline fill="none" stroke="black" points="107,-1 107,-27 "/>
<text text-anchor="middle" x="120" y="-10.4" font-family="Times Roman,serif" font-size="14.00">C</text>
<polyline fill="none" stroke="black" points="133,-1 133,-27 "/>
<text text-anchor="middle" x="143.5" y="-10.4" font-family="Times Roman,serif" font-size="14.00"> </text>
</g>
<!-- node2&#45;&gt;node8 -->
<g id="edge10" class="edge"><title>node2:f2&#45;&gt;node8:f1</title>
<path fill="none" stroke="black" d="M101,-65C101,-50.1006 112.83,-46.8113 117.82,-36.8099"/>
<polygon fill="black" stroke="black" points="121.248,-37.5211 120,-27 114.414,-36.0028 121.248,-37.5211"/>
</g>
<!-- node5 -->
<g id="node6" class="node"><title>node5</title>
<polygon fill="none" stroke="black" points="212.5,-65 212.5,-91 281.5,-91 281.5,-65 212.5,-65"/>
<text text-anchor="middle" x="223" y="-74.4" font-family="Times Roman,serif" font-size="14.00"> </text>
<polyline fill="none" stroke="black" points="233.5,-65 233.5,-91 "/>
<text text-anchor="middle" x="247" y="-74.4" font-family="Times Roman,serif" font-size="14.00">H</text>
<polyline fill="none" stroke="black" points="260.5,-65 260.5,-91 "/>
<text text-anchor="middle" x="271" y="-74.4" font-family="Times Roman,serif" font-size="14.00"> </text>
</g>
<!-- node4&#45;&gt;node5 -->
<g id="edge16" class="edge"><title>node4:f0&#45;&gt;node5:f1</title>
<path fill="none" stroke="black" d="M247,-129C247,-116.069 247,-110.564 247,-101.114"/>
<polygon fill="black" stroke="black" points="250.5,-101 247,-91 243.5,-101 250.5,-101"/>
</g>
<!-- node6 -->
<g id="node7" class="node"><title>node6</title>
<polygon fill="none" stroke="black" points="299,-65 299,-91 367,-91 367,-65 299,-65"/>
<text text-anchor="middle" x="309.5" y="-74.4" font-family="Times Roman,serif" font-size="14.00"> </text>
<polyline fill="none" stroke="black" points="320,-65 320,-91 "/>
<text text-anchor="middle" x="333" y="-74.4" font-family="Times Roman,serif" font-size="14.00">Y</text>
<polyline fill="none" stroke="black" points="346,-65 346,-91 "/>
<text text-anchor="middle" x="356.5" y="-74.4" font-family="Times Roman,serif" font-size="14.00"> </text>
</g>
<!-- node4&#45;&gt;node6 -->
<g id="edge14" class="edge"><title>node4:f2&#45;&gt;node6:f1</title>
<path fill="none" stroke="black" d="M295,-129C295,-109.221 321.06,-112.521 330.018,-100.675"/>
<polygon fill="black" stroke="black" points="333.399,-101.587 333,-91 326.71,-99.5255 333.399,-101.587"/>
</g>
</g>
</svg>
