<?xml version="1.0" encoding="UTF-8" standalone="no"?>
<!DOCTYPE svg PUBLIC "-//W3C//DTD SVG 1.1//EN"
 "http://www.w3.org/Graphics/SVG/1.1/DTD/svg11.dtd">
<!-- Generated by graphviz version 2.26.3 (20100126.1600)
 -->
<!-- Title: G Pages: 1 -->
<svg width="1742pt" height="116pt"
 viewBox="0.00 0.00 1742.00 116.00" xmlns="http://www.w3.org/2000/svg" xmlns:xlink="http://www.w3.org/1999/xlink">
<g id="graph1" class="graph" transform="scale(1 1) rotate(0) translate(4 112)">
<title>G</title>
<polygon fill="white" stroke="white" points="-4,5 -4,-112 1739,-112 1739,5 -4,5"/>
<!-- 重发次数达到上限 -->
<g id="node1" class="node"><title>重发次数达到上限</title>
<polygon fill="none" stroke="black" points="168,-108 50,-108 50,-72 168,-72 168,-108"/>
<text text-anchor="middle" x="109" y="-85.4" font-family="FangSong" font-size="14.00">重发次数达到上限</text>
</g>
<!-- uip_flags == UIP_TIMEDOUT -->
<g id="node3" class="node"><title>uip_flags == UIP_TIMEDOUT</title>
<polygon fill="none" stroke="black" points="218,-36 9.9476e-14,-36 0,-1.77636e-14 218,-3.55271e-15 218,-36"/>
<text text-anchor="middle" x="109" y="-14.4" font-family="FangSong" font-size="14.00">uip_flags == UIP_TIMEDOUT</text>
</g>
<!-- 重发次数达到上限&#45;&gt;uip_flags == UIP_TIMEDOUT -->
<g id="edge2" class="edge"><title>重发次数达到上限&#45;&gt;uip_flags == UIP_TIMEDOUT</title>
<path fill="none" stroke="black" d="M109,-71.8314C109,-64.131 109,-54.9743 109,-46.4166"/>
<polygon fill="black" stroke="black" points="112.5,-46.4132 109,-36.4133 105.5,-46.4133 112.5,-46.4132"/>
</g>
<!-- 需要做一次重发 -->
<g id="node4" class="node"><title>需要做一次重发</title>
<polygon fill="none" stroke="black" points="387,-108 281,-108 281,-72 387,-72 387,-108"/>
<text text-anchor="middle" x="334" y="-85.4" font-family="FangSong" font-size="14.00">需要做一次重发</text>
</g>
<!-- uip_flags == UIP_REXMIT -->
<g id="node6" class="node"><title>uip_flags == UIP_REXMIT</title>
<polygon fill="none" stroke="black" points="432,-36 236,-36 236,-1.77636e-14 432,-3.55271e-15 432,-36"/>
<text text-anchor="middle" x="334" y="-14.4" font-family="FangSong" font-size="14.00">uip_flags == UIP_REXMIT</text>
</g>
<!-- 需要做一次重发&#45;&gt;uip_flags == UIP_REXMIT -->
<g id="edge4" class="edge"><title>需要做一次重发&#45;&gt;uip_flags == UIP_REXMIT</title>
<path fill="none" stroke="black" d="M334,-71.8314C334,-64.131 334,-54.9743 334,-46.4166"/>
<polygon fill="black" stroke="black" points="337.5,-46.4132 334,-36.4133 330.5,-46.4133 337.5,-46.4132"/>
</g>
<!-- 向application请求新的数据 -->
<g id="node7" class="node"><title>向application请求新的数据</title>
<polygon fill="none" stroke="black" points="629,-108 449,-108 449,-72 629,-72 629,-108"/>
<text text-anchor="middle" x="539" y="-86.4" font-family="FangSong" font-size="14.00">向application请求新的数据</text>
</g>
<!-- uip_flags == UIP_POLL -->
<g id="node9" class="node"><title>uip_flags == UIP_POLL</title>
<polygon fill="none" stroke="black" points="628,-36 450,-36 450,-1.77636e-14 628,-3.55271e-15 628,-36"/>
<text text-anchor="middle" x="539" y="-14.4" font-family="FangSong" font-size="14.00">uip_flags == UIP_POLL</text>
</g>
<!-- 向application请求新的数据&#45;&gt;uip_flags == UIP_POLL -->
<g id="edge6" class="edge"><title>向application请求新的数据&#45;&gt;uip_flags == UIP_POLL</title>
<path fill="none" stroke="black" d="M539,-71.8314C539,-64.131 539,-54.9743 539,-46.4166"/>
<polygon fill="black" stroke="black" points="542.5,-46.4132 539,-36.4133 535.5,-46.4133 542.5,-46.4132"/>
</g>
<!-- 收到一个RST包 -->
<g id="node10" class="node"><title>收到一个RST包</title>
<polygon fill="none" stroke="black" points="795,-108 687,-108 687,-72 795,-72 795,-108"/>
<text text-anchor="middle" x="741" y="-86.4" font-family="FangSong" font-size="14.00">收到一个RST包</text>
</g>
<!-- uip_flags == UIP_ABORT -->
<g id="node12" class="node"><title>uip_flags == UIP_ABORT</title>
<polygon fill="none" stroke="black" points="836,-36 646,-36 646,-1.77636e-14 836,-3.55271e-15 836,-36"/>
<text text-anchor="middle" x="741" y="-14.4" font-family="FangSong" font-size="14.00">uip_flags == UIP_ABORT</text>
</g>
<!-- 收到一个RST包&#45;&gt;uip_flags == UIP_ABORT -->
<g id="edge8" class="edge"><title>收到一个RST包&#45;&gt;uip_flags == UIP_ABORT</title>
<path fill="none" stroke="black" d="M741,-71.8314C741,-64.131 741,-54.9743 741,-46.4166"/>
<polygon fill="black" stroke="black" points="744.5,-46.4132 741,-36.4133 737.5,-46.4133 744.5,-46.4132"/>
</g>
<!-- 上次发送的数据已得到确认 -->
<g id="node13" class="node"><title>上次发送的数据已得到确认</title>
<polygon fill="none" stroke="black" points="1043,-108 873,-108 873,-72 1043,-72 1043,-108"/>
<text text-anchor="middle" x="958" y="-85.4" font-family="FangSong" font-size="14.00">上次发送的数据已得到确认</text>
</g>
<!-- uip_flags == UIP_ACKDATA -->
<g id="node15" class="node"><title>uip_flags == UIP_ACKDATA</title>
<polygon fill="none" stroke="black" points="1062,-36 854,-36 854,-1.77636e-14 1062,-3.55271e-15 1062,-36"/>
<text text-anchor="middle" x="958" y="-14.4" font-family="FangSong" font-size="14.00">uip_flags == UIP_ACKDATA</text>
</g>
<!-- 上次发送的数据已得到确认&#45;&gt;uip_flags == UIP_ACKDATA -->
<g id="edge10" class="edge"><title>上次发送的数据已得到确认&#45;&gt;uip_flags == UIP_ACKDATA</title>
<path fill="none" stroke="black" d="M958,-71.8314C958,-64.131 958,-54.9743 958,-46.4166"/>
<polygon fill="black" stroke="black" points="961.5,-46.4132 958,-36.4133 954.5,-46.4133 961.5,-46.4132"/>
</g>
<!-- 三次握手建立 -->
<g id="node16" class="node"><title>三次握手建立</title>
<polygon fill="none" stroke="black" points="1242,-108 1150,-108 1150,-72 1242,-72 1242,-108"/>
<text text-anchor="middle" x="1196" y="-85.4" font-family="FangSong" font-size="14.00">三次握手建立</text>
</g>
<!-- uip_flags == UIP_CONNECTED -->
<g id="node18" class="node"><title>uip_flags == UIP_CONNECTED</title>
<polygon fill="none" stroke="black" points="1312,-36 1080,-36 1080,-1.77636e-14 1312,-3.55271e-15 1312,-36"/>
<text text-anchor="middle" x="1196" y="-14.4" font-family="FangSong" font-size="14.00">uip_flags == UIP_CONNECTED</text>
</g>
<!-- 三次握手建立&#45;&gt;uip_flags == UIP_CONNECTED -->
<g id="edge12" class="edge"><title>三次握手建立&#45;&gt;uip_flags == UIP_CONNECTED</title>
<path fill="none" stroke="black" d="M1196,-71.8314C1196,-64.131 1196,-54.9743 1196,-46.4166"/>
<polygon fill="black" stroke="black" points="1199.5,-46.4132 1196,-36.4133 1192.5,-46.4133 1199.5,-46.4132"/>
</g>
<!-- 收到新数据 -->
<g id="node19" class="node"><title>收到新数据</title>
<polygon fill="none" stroke="black" points="1473,-108 1393,-108 1393,-72 1473,-72 1473,-108"/>
<text text-anchor="middle" x="1433" y="-85.4" font-family="FangSong" font-size="14.00">收到新数据</text>
</g>
<!-- uip_flags |= UIP_NEWDATA -->
<g id="node21" class="node"><title>uip_flags |= UIP_NEWDATA</title>
<polygon fill="none" stroke="black" points="1536,-36 1330,-36 1330,-1.77636e-14 1536,-3.55271e-15 1536,-36"/>
<text text-anchor="middle" x="1433" y="-14.4" font-family="FangSong" font-size="14.00">uip_flags |= UIP_NEWDATA</text>
</g>
<!-- 收到新数据&#45;&gt;uip_flags |= UIP_NEWDATA -->
<g id="edge14" class="edge"><title>收到新数据&#45;&gt;uip_flags |= UIP_NEWDATA</title>
<path fill="none" stroke="black" d="M1433,-71.8314C1433,-64.131 1433,-54.9743 1433,-46.4166"/>
<polygon fill="black" stroke="black" points="1436.5,-46.4132 1433,-36.4133 1429.5,-46.4133 1436.5,-46.4132"/>
</g>
<!-- 连接关闭 -->
<g id="node22" class="node"><title>连接关闭</title>
<polygon fill="none" stroke="black" points="1678,-108 1610,-108 1610,-72 1678,-72 1678,-108"/>
<text text-anchor="middle" x="1644" y="-85.4" font-family="FangSong" font-size="14.00">连接关闭</text>
</g>
<!-- uip_flags |= UIP_CLOSE -->
<g id="node24" class="node"><title>uip_flags |= UIP_CLOSE</title>
<polygon fill="none" stroke="black" points="1734,-36 1554,-36 1554,-1.77636e-14 1734,-3.55271e-15 1734,-36"/>
<text text-anchor="middle" x="1644" y="-14.4" font-family="FangSong" font-size="14.00">uip_flags |= UIP_CLOSE</text>
</g>
<!-- 连接关闭&#45;&gt;uip_flags |= UIP_CLOSE -->
<g id="edge16" class="edge"><title>连接关闭&#45;&gt;uip_flags |= UIP_CLOSE</title>
<path fill="none" stroke="black" d="M1644,-71.8314C1644,-64.131 1644,-54.9743 1644,-46.4166"/>
<polygon fill="black" stroke="black" points="1647.5,-46.4132 1644,-36.4133 1640.5,-46.4133 1647.5,-46.4132"/>
</g>
</g>
</svg>
