<?xml version="1.0" encoding="UTF-8" standalone="no"?>
<!DOCTYPE svg PUBLIC "-//W3C//DTD SVG 1.1//EN"
 "http://www.w3.org/Graphics/SVG/1.1/DTD/svg11.dtd">
<!-- Generated by graphviz version 2.26.3 (20100126.1600)
 -->
<!-- Title: G Pages: 1 -->
<svg width="678pt" height="404pt"
 viewBox="0.00 0.00 678.00 404.00" xmlns="http://www.w3.org/2000/svg" xmlns:xlink="http://www.w3.org/1999/xlink">
<g id="graph1" class="graph" transform="scale(1 1) rotate(0) translate(4 400)">
<title>G</title>
<polygon fill="white" stroke="white" points="-4,5 -4,-400 675,-400 675,5 -4,5"/>
<!-- UIP_CLOSE -->
<g id="node1" class="node"><title>UIP_CLOSE</title>
<polygon fill="none" stroke="black" points="384,-396 290,-396 290,-360 384,-360 384,-396"/>
<text text-anchor="middle" x="337" y="-374.4" font-family="FangSong" font-size="14.00">UIP_CLOSE</text>
</g>
<!-- UIP_SYN_RCVD -->
<g id="node3" class="node"><title>UIP_SYN_RCVD</title>
<polygon fill="none" stroke="black" points="296,-306 172,-306 172,-270 296,-270 296,-306"/>
<text text-anchor="middle" x="234" y="-284.4" font-family="FangSong" font-size="14.00">UIP_SYN_RCVD</text>
</g>
<!-- UIP_CLOSE&#45;&gt;UIP_SYN_RCVD -->
<g id="edge2" class="edge"><title>UIP_CLOSE&#45;&gt;UIP_SYN_RCVD</title>
<path fill="none" stroke="black" stroke-dasharray="5,2" d="M333.276,-359.79C330.109,-348.294 324.511,-333.814 315,-324 310.251,-319.1 304.717,-314.817 298.812,-311.085"/>
<polygon fill="black" stroke="black" points="300.36,-307.938 289.944,-306.003 296.88,-314.011 300.36,-307.938"/>
<text text-anchor="middle" x="403" y="-329.4" font-family="FangSong" font-size="14.00">收到SYN，发送SYN|ACK</text>
</g>
<!-- UIP_SYN_RCVD&#45;&gt;UIP_CLOSE -->
<g id="edge4" class="edge"><title>UIP_SYN_RCVD&#45;&gt;UIP_CLOSE</title>
<path fill="none" stroke="black" stroke-dasharray="5,2" d="M171.743,-304.888C150.05,-313.869 134.016,-326.324 147,-342 163.63,-362.077 230.006,-371.043 279.652,-374.991"/>
<polygon fill="black" stroke="black" points="279.42,-378.483 289.653,-375.737 279.941,-371.503 279.42,-378.483"/>
<text text-anchor="middle" x="229" y="-329.4" font-family="FangSong" font-size="14.00">SYN|ACK未得到确认，超时</text>
</g>
<!-- UIP_ESTABLISHED -->
<g id="node6" class="node"><title>UIP_ESTABLISHED</title>
<polygon fill="none" stroke="black" points="307,-216 161,-216 161,-180 307,-180 307,-216"/>
<text text-anchor="middle" x="234" y="-194.4" font-family="FangSong" font-size="14.00">UIP_ESTABLISHED</text>
</g>
<!-- UIP_SYN_RCVD&#45;&gt;UIP_ESTABLISHED -->
<g id="edge6" class="edge"><title>UIP_SYN_RCVD&#45;&gt;UIP_ESTABLISHED</title>
<path fill="none" stroke="black" stroke-dasharray="5,2" d="M234,-269.787C234,-257.344 234,-240.605 234,-226.421"/>
<polygon fill="black" stroke="black" points="237.5,-226.186 234,-216.186 230.5,-226.186 237.5,-226.186"/>
<text text-anchor="middle" x="287" y="-239.4" font-family="FangSong" font-size="14.00">收到对端发的ACK</text>
</g>
<!-- UIP_LAST_ACK -->
<g id="node8" class="node"><title>UIP_LAST_ACK</title>
<polygon fill="none" stroke="black" points="120,-126 4.9738e-14,-126 0,-90 120,-90 120,-126"/>
<text text-anchor="middle" x="60" y="-104.4" font-family="FangSong" font-size="14.00">UIP_LAST_ACK</text>
</g>
<!-- UIP_ESTABLISHED&#45;&gt;UIP_LAST_ACK -->
<g id="edge8" class="edge"><title>UIP_ESTABLISHED&#45;&gt;UIP_LAST_ACK</title>
<path fill="none" stroke="black" stroke-dasharray="5,2" d="M160.695,-189.23C124.445,-183.432 85.7604,-174.555 73,-162 66.158,-155.268 62.6712,-145.608 60.9649,-136.313"/>
<polygon fill="black" stroke="black" points="64.4094,-135.647 59.7111,-126.151 57.4621,-136.504 64.4094,-135.647"/>
<text text-anchor="middle" x="183" y="-149.4" font-family="FangSong" font-size="14.00">收到FIN，发送FIN|ACK（被动关闭）</text>
</g>
<!-- UIP_FIN_WAIT_1 -->
<g id="node10" class="node"><title>UIP_FIN_WAIT_1</title>
<polygon fill="none" stroke="black" points="397,-126 265,-126 265,-90 397,-90 397,-126"/>
<text text-anchor="middle" x="331" y="-104.4" font-family="FangSong" font-size="14.00">UIP_FIN_WAIT_1</text>
</g>
<!-- UIP_ESTABLISHED&#45;&gt;UIP_FIN_WAIT_1 -->
<g id="edge10" class="edge"><title>UIP_ESTABLISHED&#45;&gt;UIP_FIN_WAIT_1</title>
<path fill="none" stroke="black" stroke-dasharray="5,2" d="M272.728,-179.849C281.285,-174.795 289.905,-168.798 297,-162 305.039,-154.297 312.007,-144.32 317.504,-135.041"/>
<polygon fill="black" stroke="black" points="320.675,-136.542 322.498,-126.105 314.564,-133.128 320.675,-136.542"/>
<text text-anchor="middle" x="397" y="-149.4" font-family="FangSong" font-size="14.00">发送FIN|ACK，（主动关闭）</text>
</g>
<!-- UIP_LAST_ACK&#45;&gt;UIP_CLOSE -->
<g id="edge16" class="edge"><title>UIP_LAST_ACK&#45;&gt;UIP_CLOSE</title>
<path fill="none" stroke="black" stroke-dasharray="5,2" d="M57.6314,-126.195C56.7585,-136.759 56.5085,-150.259 59,-162 77.1737,-247.638 70.1746,-287.896 139,-342 160.393,-358.817 229.059,-368.497 279.549,-373.499"/>
<polygon fill="black" stroke="black" points="279.417,-377.003 289.704,-374.468 280.081,-370.034 279.417,-377.003"/>
<text text-anchor="middle" x="104.5" y="-239.4" font-family="FangSong" font-size="14.00">收到ACK</text>
</g>
<!-- UIP_TIME_WAIT -->
<g id="node12" class="node"><title>UIP_TIME_WAIT</title>
<polygon fill="none" stroke="black" points="458,-36 330,-36 330,-1.77636e-14 458,-3.55271e-15 458,-36"/>
<text text-anchor="middle" x="394" y="-14.4" font-family="FangSong" font-size="14.00">UIP_TIME_WAIT</text>
</g>
<!-- UIP_FIN_WAIT_1&#45;&gt;UIP_TIME_WAIT -->
<g id="edge12" class="edge"><title>UIP_FIN_WAIT_1&#45;&gt;UIP_TIME_WAIT</title>
<path fill="none" stroke="black" stroke-dasharray="5,2" d="M327.06,-89.7746C325.656,-78.6924 325.726,-64.6689 332,-54 334.51,-49.7319 337.737,-45.9209 341.398,-42.5281"/>
<polygon fill="black" stroke="black" points="343.783,-45.1032 349.43,-36.1387 339.425,-39.625 343.783,-45.1032"/>
<text text-anchor="middle" x="373" y="-59.4" font-family="FangSong" font-size="14.00">收到FIN|ACK</text>
</g>
<!-- UIP_FIN_WAIT_2 -->
<g id="node14" class="node"><title>UIP_FIN_WAIT_2</title>
<polygon fill="none" stroke="black" points="640,-36 508,-36 508,-1.77636e-14 640,-3.55271e-15 640,-36"/>
<text text-anchor="middle" x="574" y="-14.4" font-family="FangSong" font-size="14.00">UIP_FIN_WAIT_2</text>
</g>
<!-- UIP_FIN_WAIT_1&#45;&gt;UIP_FIN_WAIT_2 -->
<g id="edge14" class="edge"><title>UIP_FIN_WAIT_1&#45;&gt;UIP_FIN_WAIT_2</title>
<path fill="none" stroke="black" stroke-dasharray="5,2" d="M379.882,-89.8954C419.099,-75.3709 474.258,-54.9416 515.76,-39.5704"/>
<polygon fill="black" stroke="black" points="517.034,-42.831 525.196,-36.0756 514.603,-36.2667 517.034,-42.831"/>
<text text-anchor="middle" x="501.5" y="-59.4" font-family="FangSong" font-size="14.00">收到ACK</text>
</g>
<!-- UIP_TIME_WAIT&#45;&gt;UIP_CLOSE -->
<g id="edge18" class="edge"><title>UIP_TIME_WAIT&#45;&gt;UIP_CLOSE</title>
<path fill="none" stroke="black" stroke-dasharray="5,2" d="M458.005,-31.4338C470.681,-36.6655 482.872,-43.9265 492,-54 508.648,-72.3724 506,-83.2065 506,-108 506,-288 506,-288 506,-288 506,-313.915 503.619,-325.067 484,-342 470.422,-353.719 429.519,-363.177 394.297,-369.453"/>
<polygon fill="black" stroke="black" points="393.324,-366.069 384.064,-371.217 394.514,-372.967 393.324,-366.069"/>
<text text-anchor="middle" x="538" y="-193.4" font-family="FangSong" font-size="14.00">定时器超时</text>
</g>
<!-- UIP_FIN_WAIT_2&#45;&gt;UIP_CLOSE -->
<g id="edge20" class="edge"><title>UIP_FIN_WAIT_2&#45;&gt;UIP_CLOSE</title>
<path fill="none" stroke="black" stroke-dasharray="5,2" d="M584.656,-36.2877C593.964,-54.0127 606,-81.9643 606,-108 606,-288 606,-288 606,-288 606,-332.243 473.479,-358.717 394.466,-370.569"/>
<polygon fill="black" stroke="black" points="393.552,-367.166 384.164,-372.078 394.566,-374.092 393.552,-367.166"/>
<text text-anchor="middle" x="638" y="-193.4" font-family="FangSong" font-size="14.00">定时器超时</text>
</g>
</g>
</svg>
